<svg width="140" height="41" viewBox="0 0 140 41" fill="none" xmlns="http://www.w3.org/2000/svg">
<g clip-path="url(#clip0_228_6462)">
<path d="M61.2307 22.0066H64.3154C64.3574 22.0051 64.3992 22.0124 64.4383 22.028C64.4774 22.0436 64.5129 22.0672 64.5425 22.0973C64.5721 22.1275 64.5952 22.1634 64.6104 22.203C64.6256 22.2426 64.6326 22.2849 64.6308 22.3273V40.3338C64.6326 40.3762 64.6257 40.4184 64.6104 40.4579C64.5952 40.4973 64.572 40.5332 64.5424 40.5631C64.5127 40.5931 64.4773 40.6165 64.4382 40.6319C64.3991 40.6472 64.3573 40.6543 64.3154 40.6525H61.2307C61.1887 40.6542 61.1468 40.6472 61.1076 40.6319C61.0685 40.6165 61.0328 40.5932 61.003 40.5632C60.9732 40.5333 60.9498 40.4975 60.9344 40.458C60.9189 40.4185 60.9117 40.3763 60.9132 40.3338V39.4544C60.9132 39.3482 60.8354 39.3206 60.7555 39.4013C60.4056 39.8757 59.9468 40.257 59.4186 40.5124C58.8903 40.7677 58.3086 40.8894 57.7234 40.867C55.2443 40.867 53.4002 39.3801 52.6348 36.9777C52.3198 35.9338 52.1686 34.8465 52.1869 33.7553C52.1639 32.6354 52.3245 31.5193 52.6621 30.4522C53.4254 28.2665 55.1665 26.7498 57.8033 26.7498C59.1469 26.7498 60.0973 27.2554 60.7471 28.0817C60.827 28.1879 60.9048 28.1348 60.9048 28.0265V22.321C60.9038 22.2781 60.9117 22.2356 60.9279 22.196C60.9441 22.1564 60.9684 22.1207 60.999 22.0911C61.0297 22.0615 61.0662 22.0387 61.1061 22.0242C61.1459 22.0096 61.1884 22.0036 61.2307 22.0066V22.0066ZM60.888 33.8084C60.888 32.6359 60.7029 31.7034 60.3076 31.0109C60.1341 30.6922 59.8781 30.4272 59.567 30.2443C59.2558 30.0613 58.9013 29.9672 58.5413 29.9722C58.1646 29.9541 57.7903 30.0415 57.4596 30.2248C57.129 30.4081 56.855 30.6801 56.6678 31.0109C56.2473 31.6758 56.0097 32.6359 56.0097 33.8339C55.9858 34.7532 56.1752 35.6654 56.5627 36.4976C56.7531 36.8505 57.0357 37.1439 57.3798 37.3458C57.7239 37.5477 58.1162 37.6503 58.514 37.6425C59.332 37.6425 59.9375 37.2177 60.3602 36.4976C60.6945 35.8582 60.888 34.9002 60.888 33.8084V33.8084Z" fill="#2D2E2E"/>
<path d="M78.8977 34.6601C78.8964 34.7039 78.8864 34.747 78.8684 34.7869C78.8503 34.8267 78.8246 34.8626 78.7927 34.8922C78.7607 34.9219 78.7233 34.9448 78.6825 34.9597C78.6417 34.9746 78.5983 34.981 78.555 34.9788H70.407C70.3271 34.9788 70.2745 35.0319 70.3018 35.1126C70.3513 35.4781 70.4489 35.8353 70.592 36.1747C71.0126 37.0795 71.8536 37.6616 73.3865 37.6616C73.9065 37.6654 74.4198 37.5422 74.8825 37.3026C75.3453 37.0629 75.7439 36.7139 76.0443 36.2851C76.1747 36.0982 76.3072 36.0727 76.4649 36.232L78.3573 38.1225C78.3924 38.1477 78.4215 38.1805 78.4424 38.2185C78.4633 38.2565 78.4756 38.2987 78.4782 38.3421C78.4808 38.3855 78.4738 38.429 78.4576 38.4693C78.4414 38.5096 78.4165 38.5457 78.3847 38.575C77.1966 40.0619 75.2453 40.8924 73.0312 40.8669C70.0243 40.8669 67.9426 39.3481 67.0447 36.9245C66.6541 35.8875 66.4663 34.7838 66.4917 33.6745C66.4546 32.7172 66.5885 31.7609 66.887 30.8515C67.6776 28.3471 69.814 26.7222 72.6085 26.7222C76.221 26.7222 78.33 29.0587 78.78 32.3958C78.8861 33.1455 78.9255 33.9033 78.8977 34.6601V34.6601ZM70.4595 31.544C70.3792 31.8227 70.3174 32.1066 70.2745 32.3937C70.2732 32.4116 70.2758 32.4295 70.282 32.4463C70.2883 32.4631 70.298 32.4784 70.3105 32.4911C70.3231 32.5038 70.3382 32.5136 70.3548 32.5199C70.3715 32.5261 70.3893 32.5287 70.407 32.5275H74.9678C75.0477 32.5275 75.1002 32.4744 75.075 32.3937C75.0203 32.1005 74.9951 31.8605 74.9425 31.6481C74.625 30.586 73.8344 29.97 72.6485 29.97C71.5151 29.9679 70.8023 30.5308 70.4595 31.544V31.544Z" fill="#2D2E2E"/>
<path d="M80.6704 36.8716C80.3523 35.8554 80.2011 34.7934 80.2225 33.7279C80.1999 32.6796 80.3512 31.6349 80.6704 30.6372C81.5115 28.2412 83.7025 26.75 86.5243 26.75C89.424 26.75 91.6655 28.4005 92.3509 30.5055C92.4678 30.8125 92.5387 31.1354 92.5612 31.4635C92.5694 31.5042 92.5689 31.5462 92.5596 31.5867C92.5503 31.6271 92.5324 31.6651 92.5073 31.6979C92.4821 31.7308 92.4503 31.7578 92.4139 31.7771C92.3774 31.7964 92.3373 31.8075 92.2963 31.8097L89.2642 32.2622C89.2224 32.2717 89.1791 32.2722 89.1371 32.2637C89.0951 32.2552 89.0554 32.2379 89.0205 32.2129C88.9855 32.1878 88.9563 32.1556 88.9345 32.1184C88.9127 32.0811 88.8989 32.0396 88.8941 31.9967L88.8163 31.5718C88.5787 30.6924 87.7082 29.9745 86.5033 29.9745C85.3699 29.9745 84.5793 30.5862 84.2639 31.5718C84.0469 32.2789 83.9489 33.0177 83.9737 33.7576C83.9505 34.4948 84.0391 35.2312 84.2366 35.9412C84.3661 36.4431 84.6614 36.8851 85.0737 37.1942C85.4859 37.5032 85.9903 37.6607 86.5033 37.6406C87.0122 37.6589 87.5129 37.5071 87.9277 37.2087C88.3425 36.9103 88.6482 36.4819 88.7974 35.9901C88.8196 35.9402 88.829 35.8854 88.8247 35.8308C88.8344 35.8199 88.8416 35.8071 88.846 35.7932C88.8503 35.7793 88.8517 35.7645 88.8499 35.7501C88.8543 35.7083 88.8673 35.6679 88.8882 35.6316C88.9091 35.5953 88.9373 35.5639 88.9711 35.5394C89.0048 35.5149 89.0434 35.498 89.0841 35.4896C89.1248 35.4812 89.1668 35.4817 89.2074 35.4909L92.2353 35.9646C92.2762 35.9671 92.316 35.9784 92.3522 35.9979C92.3884 36.0173 92.42 36.0443 92.4449 36.0772C92.4698 36.11 92.4875 36.1478 92.4966 36.1881C92.5058 36.2285 92.5063 36.2703 92.4981 36.3108C92.4667 36.5634 92.414 36.8129 92.3404 37.0564C91.5771 39.4546 89.2558 40.8671 86.5138 40.8671C83.6962 40.8671 81.5346 39.3144 80.6704 36.8716Z" fill="#2D2E2E"/>
<path d="M94.0058 23.313C94.0058 22.7548 94.2253 22.2193 94.6161 21.8246C95.0069 21.4298 95.5369 21.208 96.0896 21.208C96.6422 21.208 97.1723 21.4298 97.5631 21.8246C97.9538 22.2193 98.1734 22.7548 98.1734 23.313C98.1734 23.8713 97.9538 24.4068 97.5631 24.8015C97.1723 25.1963 96.6422 25.4181 96.0896 25.4181C95.5369 25.4181 95.0069 25.1963 94.6161 24.8015C94.2253 24.4068 94.0058 23.8713 94.0058 23.313V23.313ZM94.1908 40.3339V27.2555C94.189 27.2129 94.196 27.1704 94.2114 27.1306C94.2267 27.0909 94.25 27.0548 94.2799 27.0247C94.3097 26.9945 94.3454 26.971 94.3848 26.9555C94.4241 26.94 94.4662 26.9329 94.5083 26.9347H97.593C97.635 26.9332 97.6769 26.9405 97.716 26.9561C97.755 26.9718 97.7905 26.9954 97.8201 27.0255C97.8497 27.0556 97.8729 27.0916 97.8881 27.1312C97.9033 27.1707 97.9102 27.2131 97.9084 27.2555V40.3339C97.9102 40.3763 97.9033 40.4185 97.8881 40.458C97.8728 40.4974 97.8497 40.5333 97.82 40.5632C97.7904 40.5932 97.7549 40.6166 97.7158 40.632C97.6767 40.6473 97.6349 40.6544 97.593 40.6526H94.5083C94.4664 40.6543 94.4245 40.6473 94.3853 40.632C94.3461 40.6166 94.3105 40.5933 94.2807 40.5633C94.2508 40.5334 94.2275 40.4976 94.212 40.4581C94.1966 40.4186 94.1893 40.3764 94.1908 40.3339V40.3339Z" fill="#2D2E2E"/>
<path d="M108.904 22.0066H112.001C112.043 22.0051 112.085 22.0124 112.124 22.028C112.163 22.0436 112.198 22.0672 112.228 22.0973C112.258 22.1275 112.281 22.1634 112.296 22.203C112.311 22.2426 112.318 22.2849 112.316 22.3273V40.3338C112.318 40.3762 112.311 40.4184 112.296 40.4579C112.281 40.4973 112.257 40.5332 112.228 40.5631C112.198 40.5931 112.163 40.6165 112.124 40.6319C112.085 40.6472 112.043 40.6543 112.001 40.6525H108.904C108.862 40.6543 108.82 40.6472 108.781 40.6319C108.742 40.6165 108.706 40.5931 108.677 40.5631C108.647 40.5332 108.624 40.4973 108.609 40.4579C108.593 40.4184 108.586 40.3762 108.588 40.3338V39.4544C108.588 39.3482 108.508 39.3206 108.43 39.4013C108.081 39.8757 107.622 40.257 107.094 40.5124C106.565 40.7677 105.983 40.8894 105.398 40.867C102.919 40.867 101.073 39.3801 100.308 36.9777C99.9936 35.9336 99.8425 34.8464 99.8598 33.7553C99.8378 32.6354 99.9983 31.5195 100.335 30.4522C101.1 28.2665 102.839 26.7498 105.476 26.7498C106.822 26.7498 107.77 27.2554 108.42 28.0817C108.498 28.1879 108.578 28.1348 108.578 28.0265V22.321C108.577 22.2781 108.585 22.2356 108.601 22.196C108.617 22.1564 108.641 22.1207 108.672 22.0911C108.703 22.0615 108.739 22.0387 108.779 22.0242C108.819 22.0096 108.861 22.0036 108.904 22.0066V22.0066ZM108.561 33.8084C108.561 32.6359 108.378 31.7034 107.98 31.0109C107.807 30.6919 107.551 30.4267 107.24 30.2436C106.929 30.0606 106.574 29.9668 106.214 29.9722C105.838 29.954 105.464 30.0414 105.133 30.2247C104.803 30.408 104.529 30.6802 104.343 31.0109C103.922 31.6758 103.685 32.6359 103.685 33.8339C103.661 34.7532 103.85 35.6654 104.238 36.4976C104.428 36.8505 104.711 37.1439 105.055 37.3458C105.399 37.5477 105.791 37.6503 106.189 37.6425C107.007 37.6425 107.612 37.2177 108.035 36.4976C108.378 35.8582 108.561 34.9002 108.561 33.8084V33.8084Z" fill="#2D2E2E"/>
<path d="M114.39 23.313C114.381 23.0311 114.428 22.7502 114.529 22.4871C114.629 22.2241 114.781 21.9841 114.976 21.7815C115.17 21.5789 115.402 21.4178 115.66 21.3078C115.917 21.1978 116.193 21.1411 116.472 21.1411C116.751 21.1411 117.028 21.1978 117.285 21.3078C117.542 21.4178 117.775 21.5789 117.969 21.7815C118.163 21.9841 118.315 22.2241 118.416 22.4871C118.517 22.7502 118.564 23.0311 118.555 23.313C118.564 23.5949 118.517 23.8758 118.416 24.1389C118.315 24.402 118.163 24.6419 117.969 24.8445C117.775 25.0471 117.542 25.2082 117.285 25.3182C117.028 25.4282 116.751 25.4849 116.472 25.4849C116.193 25.4849 115.917 25.4282 115.66 25.3182C115.402 25.2082 115.17 25.0471 114.976 24.8445C114.781 24.6419 114.629 24.402 114.529 24.1389C114.428 23.8758 114.381 23.5949 114.39 23.313ZM114.575 40.3339V27.2555C114.573 27.213 114.58 27.1707 114.595 27.1311C114.61 27.0915 114.633 27.0556 114.663 27.0254C114.693 26.9953 114.728 26.9717 114.767 26.9561C114.806 26.9405 114.848 26.9332 114.89 26.9347H117.975C118.017 26.9329 118.059 26.94 118.098 26.9554C118.138 26.9709 118.173 26.9945 118.203 27.0246C118.233 27.0548 118.256 27.0909 118.272 27.1306C118.287 27.1703 118.294 27.2128 118.292 27.2555V40.3339C118.294 40.3763 118.286 40.4186 118.271 40.4581C118.256 40.4976 118.232 40.5334 118.202 40.5633C118.173 40.5932 118.137 40.6166 118.098 40.6319C118.059 40.6473 118.017 40.6543 117.975 40.6525H114.89C114.848 40.6543 114.806 40.6473 114.767 40.6319C114.728 40.6166 114.693 40.5932 114.663 40.5632C114.633 40.5332 114.61 40.4974 114.595 40.4579C114.58 40.4185 114.573 40.3762 114.575 40.3339V40.3339Z" fill="#2D2E2E"/>
<path d="M139.967 31.5166V40.334C139.969 40.3764 139.961 40.4187 139.946 40.4582C139.93 40.4977 139.907 40.5335 139.877 40.5634C139.847 40.5933 139.812 40.6167 139.773 40.632C139.733 40.6474 139.692 40.6544 139.65 40.6526H136.565C136.523 40.6544 136.481 40.6474 136.442 40.632C136.403 40.6167 136.367 40.5933 136.337 40.5634C136.307 40.5335 136.284 40.4977 136.269 40.4582C136.253 40.4187 136.246 40.3764 136.247 40.334V32.3429C136.247 30.9049 135.457 29.9723 134.218 29.9723C132.98 29.9723 132.134 30.8772 132.134 32.3089V40.334C132.136 40.3763 132.129 40.4186 132.114 40.458C132.099 40.4975 132.076 40.5333 132.046 40.5633C132.016 40.5933 131.981 40.6167 131.942 40.632C131.903 40.6474 131.861 40.6544 131.819 40.6526H128.76C128.718 40.6544 128.676 40.6474 128.637 40.632C128.598 40.6167 128.562 40.5933 128.533 40.5633C128.503 40.5333 128.48 40.4975 128.465 40.458C128.449 40.4186 128.442 40.3763 128.444 40.334V32.3429C128.444 30.9049 127.603 29.9723 126.36 29.9723C125.227 29.9723 124.436 30.6903 124.277 31.8841V40.334C124.278 40.3763 124.271 40.4186 124.256 40.458C124.241 40.4975 124.218 40.5333 124.188 40.5633C124.158 40.5933 124.123 40.6167 124.084 40.632C124.045 40.6474 124.003 40.6544 123.961 40.6526H120.876C120.834 40.6544 120.793 40.6474 120.753 40.632C120.714 40.6167 120.679 40.5933 120.649 40.5634C120.619 40.5335 120.596 40.4977 120.58 40.4582C120.565 40.4187 120.557 40.3764 120.559 40.334V27.281C120.557 27.2386 120.565 27.1963 120.58 27.1569C120.596 27.1174 120.619 27.0816 120.649 27.0516C120.679 27.0217 120.714 26.9983 120.753 26.983C120.793 26.9676 120.834 26.9606 120.876 26.9624H123.961C124.003 26.9606 124.045 26.9676 124.084 26.983C124.123 26.9984 124.158 27.0218 124.188 27.0517C124.218 27.0817 124.241 27.1175 124.256 27.157C124.271 27.1965 124.278 27.2387 124.277 27.281V28.3198C124.277 28.4281 124.356 28.4812 124.436 28.375C125.174 27.2555 126.329 26.75 127.784 26.75C129.55 26.75 130.896 27.5487 131.607 28.906C131.661 29.0122 131.714 29.0122 131.792 28.906C132.582 27.4191 133.981 26.75 135.589 26.75C138.331 26.75 139.967 28.5067 139.967 31.5166Z" fill="#2D2E2E"/>
<path d="M0.767034 17.3274C0.765929 16.4253 0.940827 15.5318 1.28173 14.698C1.62263 13.8643 2.12286 13.1065 2.75381 12.4682C3.38477 11.8298 4.13408 11.3233 4.95891 10.9776C5.78374 10.632 6.66792 10.4539 7.56092 10.4536H12.9985C13.3586 10.4542 13.7038 10.5989 13.9584 10.8561C14.2131 11.1134 14.3563 11.4621 14.3569 11.8258V39.2805C14.3569 39.4607 14.3218 39.6392 14.2535 39.8057C14.1852 39.9722 14.0852 40.1234 13.9591 40.2508C13.8329 40.3783 13.6832 40.4793 13.5184 40.5483C13.3536 40.6173 13.1769 40.6528 12.9985 40.6528H7.56092C5.7596 40.6522 4.03219 39.9292 2.75827 38.6427C1.48436 37.3562 0.768149 35.6114 0.767034 33.7917V17.3274Z" fill="#2D2E2E"/>
<path d="M29.3051 0.867188H18.432C17.6818 0.867188 17.0736 1.48154 17.0736 2.23939V39.2804C17.0736 40.0383 17.6818 40.6526 18.432 40.6526H29.3051C30.0553 40.6526 30.6635 40.0383 30.6635 39.2804V2.23939C30.6635 1.48154 30.0553 0.867188 29.3051 0.867188Z" fill="#2D2E2E"/>
<path d="M48.3284 33.7915C48.328 35.1489 47.9292 36.4756 47.1824 37.6039C46.4357 38.7323 45.3745 39.6116 44.133 40.1307C42.8915 40.6499 41.5256 40.7855 40.2078 40.5204C38.8901 40.2554 37.6797 39.6016 36.7298 38.6416C35.7799 37.6817 35.133 36.4588 34.8711 35.1276C34.6091 33.7963 34.7437 32.4165 35.258 31.1625C35.7723 29.9086 36.6431 28.8368 37.7603 28.0828C38.8775 27.3287 40.1909 26.9263 41.5345 26.9263C43.3366 26.9268 45.0646 27.6504 46.3387 28.9378C47.6127 30.2252 48.3284 31.9711 48.3284 33.7915Z" fill="#2D2E2E"/>
</g>
<defs>
<clipPath id="clip0_228_6462">
<rect width="139.2" height="40" fill="white" transform="translate(0.767029 0.867188)"/>
</clipPath>
</defs>
</svg>
