<svg width="98" height="98" viewBox="0 0 98 98" fill="none" xmlns="http://www.w3.org/2000/svg">
<path d="M81.9646 56.424C81.9446 63.4 81.9606 70.3761 81.9636 77.3511C81.9646 79.8941 81.8966 79.9731 79.4066 79.9741C69.8646 79.9781 60.3216 79.9751 50.7796 79.9731C41.3656 79.9711 31.9506 79.9721 22.5366 79.9701C19.9706 79.9691 19.9196 79.9641 19.9076 77.4701C19.8776 70.8171 19.8966 64.163 19.8926 57.51C19.8926 57 19.8966 56.487 19.8516 55.98C19.6806 54.034 18.7196 53.344 16.8856 54.027C15.8846 54.4 14.9676 55.032 14.0636 55.625C10.2176 58.15 5.35362 57.064 3.09762 53.15C0.808623 49.179 2.22562 43.711 6.15862 41.858C8.79562 40.616 11.4756 40.625 13.9966 42.355C14.7856 42.896 15.5896 43.444 16.4546 43.84C18.6306 44.837 19.8086 44.148 19.8536 41.766C19.9276 37.864 19.8746 33.959 19.8746 30.056C19.8746 26.728 19.9056 23.4 19.8616 20.073C19.8426 18.644 20.3136 18.002 21.8656 18.013C29.1656 18.067 36.4656 18.011 43.7656 18.038C45.9376 18.046 46.6786 19.106 45.9106 21.137C45.5326 22.135 44.9056 23.049 44.3246 23.958C42.1826 27.312 42.6326 31.401 45.4476 33.894C48.3266 36.443 53.3976 36.485 56.2616 33.983C59.2186 31.4 59.7036 27.315 57.5326 23.908C56.8546 22.844 56.2306 21.706 55.8246 20.518C55.3246 19.056 56.0356 18.082 57.5776 18.072C65.1976 18.023 72.8176 18.044 80.4376 18.028C81.9606 18.025 81.9596 19.052 81.9586 20.134C81.9536 27.046 81.9176 33.958 81.9986 40.869" stroke="#F2F2F2" stroke-width="3"/>
</svg>
