<svg width="98" height="98" viewBox="0 0 98 98" fill="none" xmlns="http://www.w3.org/2000/svg">
<path d="M49.1259 16.1529C39.5129 16.1529 29.8999 16.1969 20.2879 16.1149C18.4549 16.0989 17.9869 16.7959 17.9999 18.4639C18.0539 25.4199 18.0329 32.3769 18.0229 39.333C18.0189 42.214 19.3759 43.08 21.9299 41.737C22.8339 41.2619 23.6399 40.605 24.5229 40.0879C27.6329 38.2659 31.7429 39.0129 34.1069 41.8049C36.5299 44.667 36.4849 49.671 34.0099 52.473C31.5889 55.213 27.5379 55.798 24.4049 53.884C23.3139 53.218 22.2429 52.472 21.0649 52.009C19.2689 51.304 18.1069 52.041 18.0879 53.97C18.0129 61.466 18.0479 68.963 18.0209 76.459C18.0149 78.049 19.0119 78.101 20.2109 78.096C27.1999 78.071 34.1879 78.08 41.1769 78.085C44.3329 78.087 45.1159 79.386 43.6249 82.151C43.3519 82.657 43.0159 83.129 42.6969 83.608C40.6509 86.689 40.5969 90.267 42.5599 92.928C44.4959 95.554 48.3129 96.661 51.7469 95.594C56.6429 94.072 58.6399 88.363 55.7939 84.053C55.2669 83.255 54.6939 82.464 54.3149 81.595C53.3069 79.285 54.0149 78.13 56.5209 78.095C60.8789 78.034 65.2389 78.075 69.5979 78.076C72.4839 78.076 75.3709 78.032 78.2539 78.104C79.6869 78.139 80.1769 77.549 80.1699 76.171C80.1359 68.866 80.1739 61.561 80.1379 54.256C80.1269 52.017 78.9779 51.286 76.8519 52.121C76.0299 52.444 75.2669 52.949 74.5269 53.445C70.9399 55.849 66.8139 55.452 64.1109 52.414C61.6729 49.674 61.6869 44.58 64.1399 41.745C66.7449 38.7349 70.8229 38.2799 74.3659 40.5789C75.1689 41.0999 75.9779 41.6539 76.8609 41.9989C78.9509 42.815 80.1029 42.0409 80.1459 39.7969C80.1989 37.0429 80.1549 34.2859 80.1549 31.5309C80.1549 27.1729 80.0989 22.8149 80.1839 18.4589C80.2189 16.6779 79.7069 15.9819 77.7829 16.0009" stroke="#F2F2F2" stroke-width="3"/>
</svg>
