<svg width="98" height="99" viewBox="0 0 98 99" fill="none" xmlns="http://www.w3.org/2000/svg">
<path d="M47.0625 80.3331C37.5832 80.3331 28.1049 80.3341 18.6256 80.3321C16.1121 80.3311 16.0572 80.2911 16.0522 77.7527C16.0392 71.0326 15.9972 64.3114 16.0891 57.5923C16.1041 56.4854 16.4738 54.7102 17.1501 54.4465C18.1031 54.0739 19.5386 54.7032 20.6895 55.1198C22.3977 55.7382 23.9761 56.8151 25.7203 57.2147C29.1948 58.0109 31.6193 56.0029 33.0918 53.2487C34.5703 50.4855 34.5663 47.3078 32.6652 44.6735C30.7532 42.0232 28.022 40.5946 24.6234 41.5976C23.4297 41.9502 22.3667 42.7474 21.2449 43.3448C20.5686 43.7054 19.9272 44.164 19.214 44.4157C17.1471 45.146 16.0742 44.3688 16.0552 42.0302C16.0112 36.7186 16.0502 31.406 16.0532 26.0934C16.0542 24.1754 16.0762 22.2563 16.0342 20.3393C16.0042 18.9917 16.5097 18.3583 17.9473 18.3653C25.3127 18.4023 32.6782 18.3603 40.0437 18.3953C42.1076 18.4053 42.8548 19.4931 42.1196 21.4002C41.734 22.4002 41.1386 23.3332 40.5442 24.2353C38.3394 27.5789 38.805 31.7686 41.705 34.322C44.606 36.8754 49.7058 36.8125 52.6808 34.1862C55.3461 31.8336 55.7926 27.5849 53.7667 24.3602C53.0944 23.2893 52.3691 22.1924 51.9985 21.0046C51.501 19.4112 52.2163 18.4352 53.8476 18.4232C61.4039 18.3673 68.9602 18.3953 76.5165 18.3823C78.1069 18.3793 78.1518 19.4242 78.1488 20.604C78.1318 27.3881 78.0939 34.1732 78.1838 40.9563C78.1988 42.1221 78.5374 44.0531 79.1798 44.2659C80.2177 44.6095 81.8391 44.128 82.845 43.4497C85.3774 41.7385 87.9208 40.7744 90.9428 41.8493C93.7419 42.8443 95.3103 44.8643 95.7868 47.7473C96.3413 51.1079 95.5241 54.0679 92.644 56.0419C90.2115 57.7092 87.4763 57.8091 84.802 56.4814C83.6632 55.916 82.6712 55.0459 81.5164 54.5244C79.3916 53.5644 78.1578 54.3826 78.1498 56.7062C78.1258 63.6821 78.1408 70.658 78.1418 77.6338C78.1428 80.3181 78.1388 80.3271 75.4945 80.3271C66.0172 80.3281 56.5399 80.3271 47.0625 80.3271V80.3331Z" stroke="#ECB731" stroke-width="3"/>
</svg>
