<svg width="98" height="98" viewBox="0 0 98 98" fill="none" xmlns="http://www.w3.org/2000/svg">
<path d="M50.9676 81.8365C60.6268 81.8365 70.2859 81.8096 79.944 81.8645C81.4705 81.8735 81.976 81.3261 81.968 79.8556C81.93 72.8207 81.983 65.7849 81.942 58.7491C81.923 55.5354 80.3007 54.6992 77.5075 56.4974C75.5535 57.7561 73.7094 59.0488 71.186 58.812C68.0352 58.5163 65.3919 56.5453 64.4968 53.6113C63.4029 50.025 64.5068 46.2928 67.25 44.3038C69.6825 42.5396 73.2539 42.5296 75.9092 44.2409C76.8732 44.8623 77.8342 45.5446 78.8911 45.9501C80.6783 46.6354 81.8851 45.9062 81.904 44.0101C81.979 36.4658 81.943 28.9195 81.934 21.3742C81.932 19.8638 80.8391 19.9207 79.7682 19.9217C72.9841 19.9297 66.1991 19.9776 59.417 19.8707C58.2042 19.8518 56.3281 19.4861 55.9695 18.7169C55.5509 17.8188 56.1813 16.1186 56.8536 15.0916C58.2741 12.9238 59.3071 10.805 58.7277 8.11673C58.0544 4.99192 55.9975 2.92603 52.6619 2.24972C49.2194 1.55143 45.9767 2.81614 44.1016 5.59131C42.5132 7.94191 42.5492 11.4613 44.1775 13.9328C44.704 14.732 45.3064 15.5002 45.704 16.3603C46.7349 18.5921 45.9797 19.8498 43.5412 19.8967C40.1496 19.9627 36.7571 19.9197 33.3646 19.9207C29.7802 19.9217 26.1959 19.9197 22.6115 19.9217C19.9203 19.9237 19.8923 19.9477 19.8903 22.568C19.8873 29.3471 19.9243 36.1262 19.8514 42.9033C19.8404 43.8992 19.5467 45.5396 18.9822 45.7374C18.0242 46.073 16.5887 45.7793 15.6367 45.2459C13.6267 44.119 11.8166 42.7504 9.29513 42.9302C6.03146 43.163 3.49305 45.0121 2.4621 48.1779C1.37821 51.5025 2.48908 55.3625 5.1064 57.3715C7.54592 59.2436 11.2711 59.3395 13.9274 57.6023C14.6756 57.1128 15.3909 56.5533 16.1881 56.1617C18.5757 54.9879 19.8753 55.7921 19.8823 58.4414C19.8993 65.2215 19.8883 72.0016 19.8883 78.7807C19.8883 81.8445 19.8893 81.8455 22.9332 81.8455H50.9656C50.9676 81.8435 50.9676 81.8405 50.9676 81.8365Z" stroke="#F2F2F2" stroke-width="3"/>
</svg>
