<svg width="99" height="99" viewBox="0 0 99 99" fill="none" xmlns="http://www.w3.org/2000/svg">
<g clip-path="url(#clip0_228_6314)">
<path d="M49.7926 82.2069C40.1796 82.2069 30.5666 82.1629 20.9546 82.2449C19.1216 82.2609 18.6536 81.5639 18.6666 79.8959C18.7206 72.9399 18.6996 65.9829 18.6896 59.0269C18.6856 56.1458 20.0426 55.2799 22.5966 56.6229C23.5006 57.0979 24.3066 57.7549 25.1896 58.2719C28.2996 60.0939 32.4096 59.3469 34.7736 56.5549C37.1966 53.6929 37.1516 48.6888 34.6766 45.8868C32.2556 43.1468 28.2046 42.5618 25.0716 44.4758C23.9806 45.1418 22.9096 45.8878 21.7316 46.3508C19.9356 47.0558 18.7736 46.3188 18.7546 44.3898C18.6796 36.8938 18.7146 29.3968 18.6876 21.9008C18.6816 20.3108 19.6786 20.2588 20.8776 20.2638C27.8666 20.2888 34.8546 20.2798 41.8436 20.2748C44.9996 20.2728 45.7826 18.9738 44.2916 16.2088C44.0186 15.7028 43.6826 15.2308 43.3636 14.7518C41.3176 11.6708 41.2636 8.09282 43.2266 5.43182C45.1626 2.80582 48.9796 1.69882 52.4136 2.76582C57.3096 4.28782 59.3066 9.99682 56.4606 14.3068C55.9336 15.1048 55.3606 15.8958 54.9816 16.7648C53.9736 19.0748 54.6816 20.2298 57.1876 20.2648C61.5456 20.3258 65.9056 20.2848 70.2646 20.2838C73.1506 20.2838 76.0376 20.3278 78.9206 20.2558C80.3536 20.2208 80.8436 20.8108 80.8366 22.1888C80.8026 29.4938 80.8406 36.7988 80.8046 44.1038C80.7936 46.3428 79.6446 47.0738 77.5186 46.2388C76.6966 45.9158 75.9336 45.4108 75.1936 44.9148C71.6066 42.5108 67.4806 42.9078 64.7776 45.9458C62.3396 48.6858 62.3536 53.7798 64.8066 56.6149C67.4116 59.6249 71.4896 60.0799 75.0326 57.7809C75.8356 57.2599 76.6446 56.7059 77.5276 56.3609C79.6176 55.5449 80.7696 56.3189 80.8126 58.5629C80.8656 61.3169 80.8216 64.0739 80.8216 66.8289C80.8216 71.1869 80.7656 75.5449 80.8506 79.9009C80.8856 81.6819 80.3736 82.3779 78.4496 82.3589" stroke="#ECB731" stroke-width="3"/>
</g>
<defs>
<clipPath id="clip0_228_6314">
<rect width="98" height="98" fill="white" transform="translate(0.666687 0.359863)"/>
</clipPath>
</defs>
</svg>
