<svg width="98" height="98" viewBox="0 0 98 98" fill="none" xmlns="http://www.w3.org/2000/svg">
<path d="M49.126 81.847C39.513 81.847 29.9 81.803 20.288 81.885C18.455 81.901 17.987 81.204 18 79.536C18.054 72.58 18.033 65.623 18.023 58.667C18.019 55.786 19.376 54.92 21.93 56.263C22.834 56.738 23.64 57.395 24.523 57.912C27.633 59.734 31.743 58.987 34.107 56.195C36.53 53.333 36.485 48.329 34.01 45.527C31.589 42.787 27.538 42.202 24.405 44.116C23.314 44.782 22.243 45.528 21.065 45.991C19.269 46.696 18.107 45.959 18.088 44.03C18.013 36.534 18.048 29.037 18.021 21.541C18.015 19.951 19.012 19.899 20.211 19.904C27.2 19.929 34.188 19.92 41.177 19.915C44.333 19.913 45.116 18.614 43.625 15.849C43.352 15.343 43.016 14.871 42.697 14.392C40.651 11.311 40.597 7.733 42.56 5.072C44.496 2.446 48.313 1.339 51.747 2.406C56.643 3.928 58.64 9.637 55.794 13.947C55.267 14.745 54.694 15.536 54.315 16.405C53.307 18.715 54.015 19.87 56.521 19.905C60.879 19.966 65.2389 19.925 69.5979 19.924C72.4839 19.924 75.3709 19.968 78.2539 19.896C79.6869 19.861 80.177 20.451 80.17 21.829C80.136 29.134 80.1739 36.439 80.1379 43.744C80.1269 45.983 78.978 46.714 76.852 45.879C76.03 45.556 75.267 45.051 74.527 44.555C70.94 42.151 66.8139 42.548 64.1109 45.586C61.673 48.326 61.687 53.42 64.14 56.255C66.745 59.265 70.8229 59.72 74.3659 57.421C75.1689 56.9 75.9779 56.346 76.8609 56.001C78.9509 55.185 80.103 55.959 80.146 58.203C80.199 60.957 80.1549 63.714 80.1549 66.469C80.1549 70.827 80.099 75.185 80.184 79.541C80.219 81.322 79.707 82.0181 77.783 81.9991" stroke="#F2F2F2" stroke-width="3" stroke-linejoin="round"/>
</svg>
