<svg width="98" height="98" viewBox="0 0 98 98" fill="none" xmlns="http://www.w3.org/2000/svg">
<path d="M47.0625 79.9733C37.5832 79.9733 28.1048 79.9743 18.6255 79.9723C16.1121 79.9713 16.0571 79.9314 16.0521 77.393C16.0391 70.6728 15.9972 63.9517 16.0891 57.2325C16.1041 56.1256 16.4737 54.3505 17.15 54.0867C18.103 53.7141 19.5386 54.3435 20.6894 54.76C22.3977 55.3784 23.976 56.4553 25.7203 56.8549C29.1947 57.6511 31.6192 55.6431 33.0917 52.8889C34.5702 50.1258 34.5662 46.948 32.6652 44.3137C30.7531 41.6634 28.0219 40.2349 24.6234 41.2378C23.4296 41.5905 22.3667 42.3877 21.2448 42.985C20.5685 43.3457 19.9272 43.8042 19.2139 44.056C17.147 44.7862 16.0741 44.009 16.0551 41.6704C16.0112 36.3588 16.0501 31.0462 16.0531 25.7336C16.0541 23.8156 16.0761 21.8966 16.0341 19.9795C16.0042 18.6319 16.5097 17.9985 17.9472 18.0055C25.3127 18.0425 32.6782 18.0005 40.0436 18.0355C42.1075 18.0455 42.8548 19.1334 42.1195 21.0404C41.7339 22.0404 41.1385 22.9735 40.5441 23.8755C38.3394 27.2191 38.8049 31.4089 41.7049 33.9622C44.606 36.5156 49.7058 36.4527 52.6807 33.8264C55.346 31.4738 55.7926 27.2251 53.7666 24.0004C53.0943 22.9295 52.3691 21.8326 51.9984 20.6448C51.501 19.0515 52.2162 18.0754 53.8476 18.0635C61.4038 18.0075 68.9601 18.0355 76.5164 18.0225C78.1068 18.0195 78.1518 19.0644 78.1488 20.2442C78.1318 27.0283 78.0938 33.8134 78.1837 40.5965C78.1987 41.7623 78.5374 43.6933 79.1797 43.9061C80.2176 44.2498 81.839 43.7682 82.845 43.0899C85.3774 41.3787 87.9208 40.4147 90.9427 41.4896C93.7418 42.4846 95.3102 44.5045 95.7868 47.3876C96.3412 50.7481 95.524 53.7081 92.644 55.6821C90.2114 57.3494 87.4762 57.4493 84.802 56.1216C83.6631 55.5562 82.6711 54.6861 81.5163 54.1646C79.3915 53.2046 78.1577 54.0228 78.1498 56.3464C78.1258 63.3223 78.1408 70.2982 78.1418 77.2741C78.1428 79.9583 78.1388 79.9673 75.4945 79.9673C66.0171 79.9683 56.5398 79.9673 47.0625 79.9673V79.9733Z" stroke="#F2F2F2" stroke-width="3"/>
</svg>
