<svg width="99" height="99" viewBox="0 0 99 99" fill="none" xmlns="http://www.w3.org/2000/svg">
<g clip-path="url(#clip0_228_6320)">
<path d="M51.301 82.1964C60.9601 82.1964 70.6193 82.1694 80.2774 82.2244C81.8039 82.2334 82.3094 81.6859 82.3014 80.2154C82.2634 73.1806 82.3163 66.1448 82.2754 59.109C82.2564 55.8952 80.6341 55.0591 77.8409 56.8573C75.8869 58.116 74.0428 59.4086 71.5194 59.1719C68.3686 58.8762 65.7253 56.9052 64.8302 53.9712C63.7363 50.3849 64.8402 46.6527 67.5834 44.6637C70.0159 42.8995 73.5873 42.8895 76.2425 44.6008C77.2066 45.2221 78.1676 45.9044 79.2245 46.31C81.0117 46.9953 82.2184 46.2661 82.2374 44.37C82.3124 36.8257 82.2764 29.2794 82.2674 21.7341C82.2654 20.2236 81.1725 20.2806 80.1016 20.2816C73.3175 20.2895 66.5325 20.3375 59.7504 20.2306C58.5376 20.2116 56.6615 19.846 56.3029 19.0768C55.8843 18.1787 56.5147 16.4784 57.187 15.4515C58.6075 13.2837 59.6405 11.1649 59.0611 8.4766C58.3878 5.35178 56.3309 3.28589 52.9953 2.60958C49.5528 1.91129 46.3101 3.176 44.435 5.95117C42.8466 8.30178 42.8826 11.8212 44.5109 14.2927C45.0374 15.0918 45.6398 15.8601 46.0374 16.7202C47.0683 18.9519 46.3131 20.2096 43.8746 20.2566C40.483 20.3225 37.0905 20.2796 33.698 20.2806C30.1136 20.2816 26.5293 20.2796 22.9449 20.2816C20.2537 20.2836 20.2257 20.3075 20.2237 22.9279C20.2207 29.7069 20.2577 36.486 20.1847 43.2631C20.1738 44.2591 19.8801 45.8994 19.3156 46.0972C18.3576 46.4329 16.9221 46.1392 15.97 45.6057C13.9601 44.4789 12.1499 43.1103 9.62852 43.2901C6.36485 43.5229 3.82644 45.372 2.79549 48.5377C1.7116 51.8623 2.82246 55.7224 5.43979 57.7314C7.8793 59.6035 11.6045 59.6994 14.2608 57.9621C15.009 57.4726 15.7243 56.9132 16.5215 56.5216C18.909 55.3478 20.2087 56.152 20.2157 58.8013C20.2327 65.5814 20.2217 72.3614 20.2217 79.1405C20.2217 82.2044 20.2227 82.2054 23.2666 82.2054H51.299C51.301 82.2034 51.301 82.2004 51.301 82.1964Z" stroke="#ECB731" stroke-width="3"/>
</g>
<defs>
<clipPath id="clip0_228_6320">
<rect width="98" height="98" fill="white" transform="translate(0.333359 0.359863)"/>
</clipPath>
</defs>
</svg>
