<svg width="342" height="342" viewBox="0 0 342 342" fill="none" xmlns="http://www.w3.org/2000/svg">
<path d="M74.8683 149.57C51.746 149.57 28.6237 149.676 5.50386 149.479C1.09492 149.44 -0.0307625 151.117 0.000506611 155.129C0.130394 171.86 0.079882 188.594 0.0558288 205.325C0.0462076 212.255 3.31022 214.338 9.45339 211.108C11.6278 209.965 13.5665 208.385 15.6904 207.141C23.1709 202.759 33.0567 204.556 38.7429 211.271C44.571 218.155 44.4627 230.191 38.5096 236.931C32.6863 243.522 22.9424 244.929 15.4065 240.325C12.7823 238.723 10.2063 236.929 7.37279 235.815C3.05285 234.119 0.257875 235.892 0.212174 240.532C0.0317757 258.562 0.115962 276.595 0.0510182 294.625C0.0365863 298.449 2.43468 298.575 5.31866 298.563C22.1294 298.502 38.9377 298.524 55.7485 298.536C63.3396 298.541 65.223 301.665 61.6367 308.316C60.98 309.533 60.1718 310.668 59.4045 311.821C54.4833 319.231 54.3534 327.838 59.075 334.238C63.7317 340.555 72.9128 343.217 81.1726 340.651C92.949 336.99 97.7525 323.258 90.9069 312.891C89.6393 310.972 88.2611 309.069 87.3495 306.979C84.9249 301.422 86.6279 298.644 92.6556 298.56C103.138 298.413 113.625 298.512 124.11 298.514C131.052 298.514 137.996 298.409 144.93 298.582C148.377 298.666 149.556 297.247 149.539 293.932C149.457 276.361 149.548 258.791 149.462 241.22C149.435 235.834 146.672 234.076 141.558 236.085C139.581 236.861 137.746 238.076 135.966 239.269C127.338 245.052 117.413 244.097 110.912 236.789C105.048 230.199 105.081 217.946 110.982 211.127C117.248 203.887 127.056 202.793 135.578 208.322C137.51 209.576 139.456 210.908 141.58 211.738C146.607 213.701 149.378 211.839 149.481 206.441C149.609 199.817 149.503 193.186 149.503 186.559C149.503 176.077 149.368 165.594 149.573 155.117C149.657 150.833 148.425 149.159 143.797 149.205" fill="#009BCA"/>
<path d="M0.325177 92.5546C0.373283 109.334 0.3348 126.114 0.327584 142.891C0.325179 149.007 0.488742 149.197 6.47797 149.2C29.4295 149.209 52.3834 149.202 75.3349 149.197C97.9785 149.193 120.625 149.195 143.268 149.19C149.44 149.188 149.563 149.176 149.592 143.177C149.664 127.174 149.618 111.169 149.628 95.1668C149.628 93.9401 149.618 92.7061 149.726 91.4866C150.138 86.8059 152.449 85.1462 156.861 86.7891C159.268 87.6862 161.474 89.2064 163.648 90.6328C172.899 96.7062 184.599 94.094 190.025 84.6796C195.531 75.1281 192.123 61.9758 182.662 57.5188C176.32 54.5314 169.873 54.553 163.81 58.7142C161.912 60.0155 159.978 61.3336 157.897 62.2861C152.663 64.6842 149.83 63.027 149.722 57.2975C149.544 47.912 149.671 38.5192 149.671 29.1313C149.671 21.1264 149.597 13.1215 149.702 5.11904C149.748 1.68184 148.615 0.137633 144.882 0.164091C127.323 0.293978 109.765 0.159281 92.2058 0.224224C86.9814 0.243467 85.1991 2.7931 87.0464 7.67829C87.9556 10.0788 89.4637 12.2773 90.8612 14.4637C96.0134 22.5311 94.931 32.3664 88.16 38.3629C81.2351 44.494 69.0378 44.595 62.149 38.577C55.0365 32.364 53.8699 22.5383 59.0918 14.3434C60.7226 11.7842 62.2235 9.04692 63.2001 6.1894C64.4027 2.67283 62.6926 0.330058 58.9836 0.306005C40.6551 0.188145 22.3266 0.238656 3.9981 0.200171C0.334803 0.192955 0.337203 2.66321 0.339608 5.26576C0.351634 21.8913 0.438235 38.5168 0.243404 55.1399" fill="#ECB731"/>
<path d="M224.943 298.377C248.2 298.377 271.457 298.312 294.712 298.445C298.387 298.466 299.604 297.148 299.585 293.608C299.494 276.669 299.621 259.729 299.522 242.788C299.477 235.05 295.57 233.037 288.845 237.367C284.14 240.397 279.7 243.51 273.624 242.94C266.038 242.228 259.674 237.482 257.518 230.418C254.885 221.783 257.542 212.796 264.147 208.007C270.004 203.76 278.603 203.736 284.997 207.856C287.318 209.352 289.632 210.995 292.177 211.971C296.48 213.621 299.385 211.865 299.431 207.3C299.611 189.135 299.525 170.966 299.503 152.798C299.498 149.161 296.867 149.298 294.288 149.301C277.954 149.32 261.617 149.436 245.287 149.178C242.367 149.132 237.85 148.252 236.987 146.4C235.979 144.238 237.497 140.144 239.115 137.671C242.536 132.452 245.023 127.35 243.628 120.877C242.007 113.353 237.054 108.379 229.023 106.751C220.734 105.07 212.926 108.115 208.412 114.797C204.587 120.456 204.674 128.93 208.594 134.881C209.862 136.805 211.312 138.655 212.27 140.726C214.752 146.099 212.934 149.128 207.062 149.241C198.896 149.399 190.728 149.296 182.559 149.298C173.929 149.301 165.299 149.296 156.668 149.301C150.189 149.306 150.121 149.363 150.116 155.673C150.109 171.995 150.198 188.317 150.023 204.635C149.996 207.033 149.289 210.983 147.93 211.459C145.623 212.267 142.167 211.56 139.875 210.276C135.035 207.562 130.677 204.267 124.606 204.7C116.747 205.26 110.636 209.713 108.153 217.335C105.543 225.34 108.218 234.634 114.52 239.471C120.394 243.979 129.363 244.21 135.759 240.027C137.561 238.848 139.283 237.501 141.202 236.558C146.951 233.732 150.08 235.668 150.097 242.047C150.138 258.372 150.112 274.697 150.112 291.02C150.112 298.397 150.114 298.399 157.443 298.399H224.938C224.943 298.394 224.943 298.387 224.943 298.377Z" fill="white"/>
<path d="M224.291 0.000618013C201.467 0.000618013 178.646 -0.00178495 155.822 0.00302568C149.77 0.00543099 149.638 0.101645 149.626 6.21355C149.594 22.3941 149.493 38.577 149.715 54.7552C149.751 57.4203 150.641 61.6945 152.269 62.3295C154.564 63.2267 158.02 61.7113 160.791 60.7083C164.904 59.2194 168.705 56.6265 172.904 55.6644C181.27 53.7474 187.108 58.582 190.653 65.2135C194.213 71.8666 194.203 79.5179 189.626 85.8607C185.022 92.242 178.446 95.6816 170.263 93.2667C167.389 92.4176 164.83 90.4981 162.129 89.0598C160.5 88.1914 158.956 87.0874 157.239 86.4813C152.262 84.723 149.679 86.5943 149.633 92.2252C149.527 105.014 149.621 117.806 149.628 130.597C149.631 135.215 149.683 139.836 149.582 144.452C149.51 147.697 150.727 149.221 154.189 149.205C171.923 149.116 189.657 149.217 207.392 149.132C212.361 149.108 214.16 146.489 212.39 141.897C211.462 139.49 210.028 137.243 208.597 135.071C203.288 127.02 204.409 116.933 211.392 110.785C218.377 104.637 230.656 104.788 237.819 111.112C244.236 116.776 245.311 127.006 240.434 134.77C238.815 137.349 237.068 139.99 236.176 142.85C234.978 146.686 236.7 149.036 240.628 149.065C258.822 149.2 277.016 149.132 295.21 149.164C299.039 149.171 299.147 146.655 299.14 143.814C299.099 127.48 299.008 111.143 299.224 94.8109C299.26 92.0039 300.076 87.3544 301.622 86.8421C304.121 86.0146 308.025 87.174 310.447 88.8072C316.545 92.9275 322.669 95.2486 329.945 92.6605C336.685 90.2648 340.461 85.4013 341.608 78.4595C342.943 70.3681 340.976 63.2411 334.041 58.4882C328.184 54.4738 321.598 54.2332 315.159 57.4299C312.417 58.7913 310.029 60.8863 307.248 62.1419C302.132 64.4534 299.162 62.4835 299.142 56.8887C299.085 40.0924 299.121 23.2961 299.123 6.49978C299.126 0.0367022 299.116 0.0150493 292.749 0.0150493C269.93 0.012644 247.111 0.0150493 224.291 0.0150493V0.000618013Z" fill="#333333"/>
</svg>
