<svg id="Layer_1" data-name="Layer 1" xmlns="http://www.w3.org/2000/svg" viewBox="0 0 121.15 28.95"><defs><style>.cls-1{fill:#ededed;}</style></defs><path class="cls-1" d="M8.12,0h5.42a3.72,3.72,0,0,1,2.64.87A2.82,2.82,0,0,1,17.1,3a2.9,2.9,0,0,1-.87,2.13,2.87,2.87,0,0,1-2.1.88,3.33,3.33,0,0,1-2-.78V8.94h-4Zm4,1.93v2a1.39,1.39,0,0,0,.33.05.94.94,0,0,0,.72-.28,1,1,0,0,0,.28-.74,1,1,0,0,0-.23-.71.86.86,0,0,0-.67-.26Z"/><path class="cls-1" d="M18.09,0h5.84a3.45,3.45,0,0,1,2.38.76,2.48,2.48,0,0,1,.87,1.91,2.29,2.29,0,0,1-1,2,7.58,7.58,0,0,1,1.73,4.28H23.78a6.8,6.8,0,0,0-.51-2.5A1.3,1.3,0,0,0,22,5.62V8.93h-4V0Zm4,1.84V3.56h.11c.71,0,1.07-.28,1.07-.84A.94.94,0,0,0,23,2.1a.87.87,0,0,0-.72-.27Z"/><path class="cls-1" d="M36.27,6.7V8.94H28.85V0h7.42V2.24H32.8V3.35h2.41V5.59H32.8v1.1Z"/><path class="cls-1" d="M45,.46,44,3.28A2.75,2.75,0,0,0,41.78,2c-.46,0-.7.18-.7.53a.43.43,0,0,0,.22.33,6.26,6.26,0,0,0,1.15.53A10.5,10.5,0,0,1,44,4.1a2.18,2.18,0,0,1,.83.85,2.56,2.56,0,0,1,.28,1.2,2.48,2.48,0,0,1-1.09,2.19,5.66,5.66,0,0,1-3.21.75,11.16,11.16,0,0,1-4.09-.67l1-3a3.16,3.16,0,0,0,1.05,1,2.39,2.39,0,0,0,1.2.39.73.73,0,0,0,.47-.15.44.44,0,0,0,.19-.36A.54.54,0,0,0,40.45,6a3.53,3.53,0,0,0-1-.5,8.84,8.84,0,0,1-1.18-.56,2.5,2.5,0,0,1-.81-.78,2.21,2.21,0,0,1-.35-1.27A2.55,2.55,0,0,1,38.21.62a5.62,5.62,0,0,1,3.2-.76A10.37,10.37,0,0,1,45,.46Z"/><path class="cls-1" d="M55,0V4.05a4.84,4.84,0,0,1-1.36,3.84,4.6,4.6,0,0,1-3.1,1.19,4.66,4.66,0,0,1-2.39-.66,3.63,3.63,0,0,1-1.59-1.73,7.41,7.41,0,0,1-.46-2.82V0h4V4.13a1.76,1.76,0,0,0,.12.84.42.42,0,0,0,.35.18.4.4,0,0,0,.42-.32A4.45,4.45,0,0,0,51,3.75V0h4Z"/><path class="cls-1" d="M56.63,0h5.42a3.72,3.72,0,0,1,2.64.87A2.82,2.82,0,0,1,65.61,3a2.9,2.9,0,0,1-.87,2.13,2.87,2.87,0,0,1-2.1.88,3.33,3.33,0,0,1-2-.78V8.94h-4V0Zm4,1.93v2a1.39,1.39,0,0,0,.33.05.94.94,0,0,0,.72-.28,1,1,0,0,0,.28-.74,1,1,0,0,0-.23-.71A.86.86,0,0,0,61,1.94Z"/><path class="cls-1" d="M75.36,0V4.05A4.84,4.84,0,0,1,74,7.89a4.6,4.6,0,0,1-3.1,1.19,4.66,4.66,0,0,1-2.39-.66,3.63,3.63,0,0,1-1.59-1.73,7.41,7.41,0,0,1-.46-2.82V0h4V4.13a1.76,1.76,0,0,0,.12.84.42.42,0,0,0,.35.18.4.4,0,0,0,.42-.32,4.45,4.45,0,0,0,.09-1.08V0h4Z"/><path class="cls-1" d="M84.41,6.7V8.94H77V0h7.42V2.24H80.94V3.35h2.41V5.59H80.94v1.1Z"/><path class="cls-1" d="M93.12.46l-1,2.82A2.75,2.75,0,0,0,89.92,2c-.46,0-.7.18-.7.53a.43.43,0,0,0,.22.33,6.26,6.26,0,0,0,1.15.53,10.5,10.5,0,0,1,1.58.74A2.18,2.18,0,0,1,93,5a2.56,2.56,0,0,1,.28,1.2,2.48,2.48,0,0,1-1.09,2.19A5.66,5.66,0,0,1,89,9.09a11.16,11.16,0,0,1-4.09-.67l1-3a3.16,3.16,0,0,0,1,1,2.39,2.39,0,0,0,1.2.39.73.73,0,0,0,.47-.15.44.44,0,0,0,.19-.36A.54.54,0,0,0,88.59,6a3.53,3.53,0,0,0-1-.5,8.84,8.84,0,0,1-1.18-.56,2.5,2.5,0,0,1-.81-.78,2.21,2.21,0,0,1-.35-1.27A2.55,2.55,0,0,1,86.35.62a5.62,5.62,0,0,1,3.2-.76A10.37,10.37,0,0,1,93.12.46Z"/><path class="cls-1" d="M93.7,4V0h8V4h-2v5h-4V4Z"/><path class="cls-1" d="M106.81,9.09a4.42,4.42,0,0,1-3.25-1.34,4.47,4.47,0,0,1-1.33-3.28,4.46,4.46,0,0,1,1.33-3.27,4.61,4.61,0,0,1,6.5,0,4.48,4.48,0,0,1,1.33,3.27,4.48,4.48,0,0,1-1.33,3.28A4.38,4.38,0,0,1,106.81,9.09Zm0-5.8a.83.83,0,0,0-.63.27.93.93,0,0,0-.25.67.93.93,0,0,0,.25.67.88.88,0,0,0,1.27,0,.93.93,0,0,0,.25-.67.93.93,0,0,0-.25-.67A.85.85,0,0,0,106.81,3.29Z"/><path class="cls-1" d="M8.12,10h5.42a3.72,3.72,0,0,1,2.64.87A2.82,2.82,0,0,1,17.1,13a3,3,0,0,1-3,3,3.33,3.33,0,0,1-2-.78v3.69h-4Zm4,1.93v2a1.39,1.39,0,0,0,.33,0,.94.94,0,0,0,.72-.28,1,1,0,0,0,.28-.74,1,1,0,0,0-.23-.71.86.86,0,0,0-.67-.26Z"/><path class="cls-1" d="M20.17,18.94h-4L19.32,10H25l3.11,8.94h-4l-.52-1.51H20.68Zm1.23-3.62h1.46l-.73-2.22Z"/><path class="cls-1" d="M29,10H34.8a3.45,3.45,0,0,1,2.38.76,2.48,2.48,0,0,1,.87,1.91,2.29,2.29,0,0,1-1,2,7.58,7.58,0,0,1,1.73,4.28H34.65a6.8,6.8,0,0,0-.51-2.5,1.3,1.3,0,0,0-1.23-.81v3.31H29V10Zm3.95,1.84v1.72H33c.71,0,1.07-.28,1.07-.84a.94.94,0,0,0-.22-.62.87.87,0,0,0-.72-.27Z"/><path class="cls-1" d="M38.87,14V10h8v4h-2v5h-4V14Z"/><path class="cls-1" d="M47.93,18.94V10h4v8.94Z"/><path class="cls-1" d="M62,10.8,60.32,14a4.81,4.81,0,0,0-1.61-.25q-1.26,0-1.26.69a.56.56,0,0,0,.35.51,2.23,2.23,0,0,0,1,.18,3.33,3.33,0,0,0,1.51-.32L62,18.16a6.15,6.15,0,0,1-1.7.67,8.14,8.14,0,0,1-1.9.25,5,5,0,0,1-3.63-1.32,4.36,4.36,0,0,1-1.35-3.24,4.38,4.38,0,0,1,1.41-3.35,5,5,0,0,1,3.57-1.32,7.89,7.89,0,0,1,1.94.25A5.49,5.49,0,0,1,62,10.8Z"/><path class="cls-1" d="M63.05,18.94V10h4v8.94Z"/><path class="cls-1" d="M68.8,10h5.42a3.72,3.72,0,0,1,2.64.87A2.82,2.82,0,0,1,77.78,13a3,3,0,0,1-3,3,3.33,3.33,0,0,1-2-.78v3.69h-4V10Zm4,1.93v2a1.39,1.39,0,0,0,.33,0,.94.94,0,0,0,.72-.28,1,1,0,0,0,.28-.74,1,1,0,0,0-.23-.71.86.86,0,0,0-.67-.26Z"/><path class="cls-1" d="M80.84,18.94h-4L80,10h5.64l3.11,8.94h-4l-.52-1.51H81.35Zm1.24-3.62h1.46l-.73-2.22Z"/><path class="cls-1" d="M88,14V10H96v4H94v5H90V14Z"/><path class="cls-1" d="M97.07,18.94V10h4v8.94Z"/><path class="cls-1" d="M111.94,10l-3,8.94h-3.84L102,10h4l1,3,1-3Z"/><path class="cls-1" d="M116.57,19.09A4.56,4.56,0,0,1,112,14.47a4.46,4.46,0,0,1,1.33-3.27,4.61,4.61,0,0,1,6.5,0,4.48,4.48,0,0,1,1.33,3.27,4.48,4.48,0,0,1-1.33,3.28A4.38,4.38,0,0,1,116.57,19.09Zm0-5.8a.83.83,0,0,0-.63.27,1,1,0,0,0,0,1.34.88.88,0,0,0,1.27,0,1,1,0,0,0,0-1.34A.84.84,0,0,0,116.57,13.29Z"/><path d="M8.12,28.94V21.26H9.73l2.42,6.94,2.42-6.94h1.61v7.68h-1V22.27L12.8,28.94H11.5L9.08,22.27v6.67Z"/><path d="M22.54,21.27v.84H20.09V29h-.95V22.11H16.75v-.84Z"/><path d="M23.37,21.27h1.18L26.65,25l2.18-3.77H29.9L27.11,26V29h-1V26Z"/><path class="cls-1" d="M5.63,28.77H0v-2.2a1.79,1.79,0,0,1,1.84-1.9,1.79,1.79,0,0,1,1.85,1.72v1.68H5.64v.7Zm-3.8-3.4a1.1,1.1,0,0,0-1.14,1.2v1.5H3.05v-1.5A1.17,1.17,0,0,0,1.83,25.37Z"/><path class="cls-1" d="M2.92,23H5.63v.66H0V21.43c0-1.23.63-1.81,1.57-1.81a1.5,1.5,0,0,1,1.58,1.72V22l2.49-2.46v1ZM2.6,23V21.5c0-.85-.36-1.21-1-1.21s-1,.37-1,1.21V23Z"/><path class="cls-1" d="M5.63,18.58H0v-.7H5.63Z"/><path class="cls-1" d="M5.63,16.54H0V15.36l5.1-1.78L0,11.8V10.62H5.63v.7H.73l4.9,1.78v1L.73,15.83h4.9Z"/><path class="cls-1" d="M5.63,5.59V9.24H0V5.64H.62V8.57H2.43V5.9h.68V8.57H5v-3Z"/><path class="cls-1" d="M2.92,3.74H5.63V4.4H0V2.19C0,1,.62.38,1.56.38A1.5,1.5,0,0,1,3.14,2.1v.63L5.63.27v1Zm-.32,0V2.26c0-.85-.36-1.21-1-1.21s-1,.37-1,1.21V3.74Z"/></svg>