<svg width="98" height="99" viewBox="0 0 98 99" fill="none" xmlns="http://www.w3.org/2000/svg">
<path d="M20.089 58.1269L20.089 58.1272C20.0137 63.633 20.0285 69.1384 20.0434 74.6625C20.0466 75.8595 20.0499 77.0574 20.0522 78.2564L20.089 58.1269ZM20.089 58.1269C20.0936 57.7824 20.1521 57.3127 20.2544 56.9083C20.2812 56.9147 20.3094 56.9218 20.339 56.9295C20.7122 57.0273 21.0767 57.1629 21.5153 57.3261C21.6694 57.3835 21.8327 57.4443 22.0087 57.508C22.5968 57.7208 23.1559 57.9925 23.8205 58.3154C23.9822 58.3939 24.15 58.4755 24.3261 58.56C25.1659 58.963 26.1682 59.4184 27.2736 59.6717C29.5164 60.1856 31.5255 59.7982 33.1981 58.7782C34.8193 57.7896 36.0102 56.2803 36.8552 54.6998C38.6482 51.3489 38.6897 47.3402 36.2872 44.0109C35.1723 42.4655 33.74 41.1666 31.9733 40.4279C30.1775 39.6771 28.171 39.5632 26.0573 40.187L26.0568 40.1871M20.089 58.1269L26.0568 40.1871M26.0568 40.1871C25.2347 40.43 24.5103 40.8094 23.913 41.1516C23.6274 41.3152 23.3956 41.4543 23.1832 41.5817C22.8842 41.761 22.6236 41.9173 22.3049 42.0871L22.3038 42.0876M26.0568 40.1871L22.3038 42.0876M22.3038 42.0876C22.0511 42.2224 21.7571 42.3955 21.5206 42.5347C21.4163 42.5961 21.3233 42.6508 21.2498 42.6929C20.9477 42.8658 20.7331 42.9721 20.5483 43.0373L20.5477 43.0375M22.3038 42.0876L20.5477 43.0375M20.5477 43.0375C20.3621 43.1031 20.2173 43.1409 20.1089 43.1622C20.0812 43.0185 20.0575 42.8102 20.0551 42.5215L20.0551 42.5212M20.5477 43.0375L20.0551 42.5212M20.0551 42.5212C20.0246 38.8278 20.0342 35.1404 20.0439 31.4402C20.0481 29.8304 20.0523 28.2183 20.0532 26.6021V26.602M20.0551 42.5212L20.0532 26.602M20.0532 26.602C20.0534 26.1402 20.0549 25.674 20.0564 25.2047C20.0611 23.7773 20.0658 22.3211 20.0352 20.8733M20.0532 26.602L20.0352 20.8733M20.0352 20.8733C23.6916 20.8913 27.3469 20.8901 30.9963 20.8886L31.1357 20.8885C34.7728 20.8871 38.4038 20.8856 42.034 20.9028L20.0352 20.8733ZM42.3836 36.3309L42.3834 36.3307C38.6836 33.0731 38.1591 27.7605 40.8741 23.6425L42.3836 36.3309ZM42.3836 36.3309C44.2709 37.992 46.7798 38.7337 49.1899 38.7039C51.6025 38.6741 54.1048 37.87 56.0043 36.1932C59.4937 33.1131 59.9411 27.7532 57.4606 23.8043C57.4173 23.7355 57.3747 23.6678 57.3328 23.6011C56.6722 22.5503 56.1723 21.7554 55.9121 20.9304M42.3836 36.3309L55.9121 20.9304M55.9121 20.9304C60.966 20.8932 66.0142 20.8935 71.071 20.8938C73.4278 20.894 75.7864 20.8941 78.1484 20.8904C78.149 20.9567 78.149 21.028 78.1488 21.1065C78.1464 22.061 78.1436 23.0161 78.1408 23.9717C78.1237 29.7987 78.1065 35.6451 78.1839 41.4895L55.9121 20.9304ZM84.3399 53.2094C85.0822 53.5446 85.7423 53.9781 86.2679 54.3255L86.3326 54.3682C86.8681 54.7223 87.2727 54.9897 87.6914 55.1976L84.3399 53.2094ZM84.3399 53.2094C83.0565 52.6296 81.384 52.279 79.9468 53.2162C78.5189 54.1474 78.1546 55.8107 78.1498 57.2069C78.1322 62.3449 78.1356 67.4845 78.1391 72.6193C78.1403 74.4608 78.1416 76.3017 78.1418 78.1417V78.1422C78.1419 78.4103 78.1419 78.6355 78.1396 78.8325C77.9546 78.8345 77.7437 78.8347 77.4945 78.8347H77.4943C71.1762 78.8353 64.8582 78.8351 58.5401 78.8349C55.381 78.8348 52.2218 78.8347 49.0625 78.8347H47.0625V78.8407M84.3399 53.2094L47.0625 78.8407M47.0625 78.8407C45.3593 78.8407 43.6561 78.8407 41.9529 78.8408C34.8439 78.841 27.7355 78.8412 20.6264 78.8397L47.0625 78.8407ZM42.3439 20.9189C42.2604 20.9098 42.158 20.9034 42.0342 20.9028L42.3439 20.9189ZM42.3439 20.9189C42.323 20.9939 42.2939 21.0834 42.2535 21.1882C41.9551 21.962 41.4751 22.7304 40.8745 23.6419L42.3439 20.9189ZM93.5133 54.8998C91.7266 56.1244 89.7701 56.2296 87.6914 55.1976L95.8135 48.5805C96.2766 51.3874 95.5924 53.4747 93.5133 54.8997L94.6111 56.5014L93.5133 54.8998ZM78.879 78.7911C78.8793 78.7913 78.8731 78.793 78.8595 78.7954C78.8719 78.7921 78.8788 78.7909 78.879 78.7911ZM20.626 78.8397C20.408 78.8396 20.2209 78.8392 20.056 78.8371C20.0535 78.6694 20.0526 78.4787 20.0522 78.2564L20.626 78.8397Z" stroke="#ECB731" stroke-width="4"/>
</svg>
