<svg width="98" height="98" viewBox="0 0 98 98" fill="none" xmlns="http://www.w3.org/2000/svg">
<mask id="path-1-inside-1_220_1085" fill="white">
<path d="M49.1259 18.1529C39.5129 18.1529 29.8999 18.1969 20.2879 18.1149C18.4549 18.0989 17.9869 18.7959 17.9999 20.4639C18.0539 27.4199 18.0329 34.3769 18.0229 41.333C18.0189 44.214 19.3759 45.08 21.9299 43.737C22.8339 43.2619 23.6399 42.605 24.5229 42.0879C27.6329 40.2659 31.7429 41.0129 34.1069 43.8049C36.5299 46.667 36.4849 51.671 34.0099 54.473C31.5889 57.213 27.5379 57.798 24.4049 55.884C23.3139 55.218 22.2429 54.472 21.0649 54.009C19.2689 53.304 18.1069 54.041 18.0879 55.97C18.0129 63.466 18.0479 70.963 18.0209 78.459C18.0149 80.049 19.0119 80.101 20.2109 80.096C27.1999 80.071 34.1879 80.08 41.1769 80.085C44.3329 80.087 45.1159 81.386 43.6249 84.151C43.3519 84.657 43.0159 85.129 42.6969 85.608C40.6509 88.689 40.5969 92.267 42.5599 94.928C44.4959 97.554 48.3129 98.661 51.7469 97.594C56.6429 96.072 58.6399 90.363 55.7939 86.053C55.2669 85.255 54.6939 84.464 54.3149 83.595C53.3069 81.285 54.0149 80.13 56.5209 80.095C60.8789 80.034 65.2389 80.075 69.5979 80.076C72.4839 80.076 75.3709 80.032 78.2539 80.104C79.6869 80.139 80.1769 79.549 80.1699 78.171C80.1359 70.866 80.1739 63.561 80.1379 56.256C80.1269 54.017 78.9779 53.286 76.8519 54.121C76.0299 54.444 75.2669 54.949 74.5269 55.445C70.9399 57.849 66.8139 57.452 64.1109 54.414C61.6729 51.674 61.6869 46.58 64.1399 43.745C66.7449 40.7349 70.8229 40.2799 74.3659 42.5789C75.1689 43.0999 75.9779 43.6539 76.8609 43.9989C78.9509 44.815 80.1029 44.0409 80.1459 41.7969C80.1989 39.0429 80.1549 36.2859 80.1549 33.5309C80.1549 29.1729 80.0989 24.8149 80.1839 20.4589C80.2189 18.6779 79.7069 17.9819 77.7829 18.0009"/>
</mask>
<path d="M20.2879 18.1149L20.2709 20.1149L20.2705 20.1149L20.2879 18.1149ZM17.9999 20.4639L19.9999 20.4483L19.9999 20.4484L17.9999 20.4639ZM18.0229 41.333L16.0229 41.3302L16.0229 41.3301L18.0229 41.333ZM21.9299 43.737L20.9991 41.9668L20.9996 41.9665L21.9299 43.737ZM24.5229 42.0879L25.5339 43.8136L25.5335 43.8139L24.5229 42.0879ZM34.1069 43.8049L35.6333 42.5126L35.6334 42.5127L34.1069 43.8049ZM34.0099 54.473L35.5089 55.797L35.5087 55.7972L34.0099 54.473ZM24.4049 55.884L25.447 54.1769L25.4476 54.1772L24.4049 55.884ZM21.0649 54.009L21.7957 52.1472L21.7965 52.1476L21.0649 54.009ZM18.0879 55.97L20.0878 55.9897L20.0878 55.99L18.0879 55.97ZM18.0209 78.459L20.0209 78.4662L20.0209 78.4665L18.0209 78.459ZM20.2109 80.096L20.2026 78.096L20.2038 78.096L20.2109 80.096ZM41.1769 80.085L41.1757 82.085L41.1755 82.085L41.1769 80.085ZM43.6249 84.151L45.3853 85.1002L45.3851 85.1006L43.6249 84.151ZM42.6969 85.608L41.0308 84.5016L41.0323 84.4994L42.6969 85.608ZM42.5599 94.928L44.1694 93.7407L44.1697 93.7412L42.5599 94.928ZM51.7469 97.594L52.3406 99.5038L52.3404 99.5039L51.7469 97.594ZM55.7939 86.053L57.4628 84.9508L57.4629 84.9509L55.7939 86.053ZM54.3149 83.595L56.148 82.7951L56.1482 82.7954L54.3149 83.595ZM56.5209 80.095L56.5489 82.0948L56.5489 82.0948L56.5209 80.095ZM69.5979 80.076L69.5979 82.076L69.5975 82.076L69.5979 80.076ZM78.2539 80.104L78.2051 82.1034L78.204 82.1033L78.2539 80.104ZM80.1699 78.171L78.1699 78.1811L78.1699 78.1803L80.1699 78.171ZM80.1379 56.256L78.1379 56.2658L78.1379 56.2658L80.1379 56.256ZM76.8519 54.121L76.1205 52.2595L76.1208 52.2594L76.8519 54.121ZM74.5269 55.445L75.6405 57.1063L75.6404 57.1063L74.5269 55.445ZM64.1109 54.414L65.6051 53.0845L65.6051 53.0845L64.1109 54.414ZM64.1399 43.745L62.6275 42.4363L62.6276 42.4361L64.1399 43.745ZM74.3659 42.5789L73.2773 44.2567L73.2773 44.2567L74.3659 42.5789ZM76.8609 43.9989L76.1335 45.862L76.1331 45.8618L76.8609 43.9989ZM80.1459 41.7969L78.1463 41.7586L78.1463 41.7585L80.1459 41.7969ZM80.1839 20.4589L78.1843 20.4199L78.1843 20.4196L80.1839 20.4589ZM49.1259 20.1529C39.5251 20.1529 29.8942 20.197 20.2709 20.1149L20.305 16.115C29.9056 16.1969 39.5007 16.1529 49.1259 16.1529V20.1529ZM20.2705 20.1149C19.923 20.1118 19.7657 20.1458 19.7225 20.1585C19.7077 20.1629 19.7315 20.1576 19.7771 20.1305C19.8253 20.1018 19.8817 20.0584 19.9347 19.9998C20.0462 19.8766 20.0562 19.7848 20.0407 19.8502C20.0217 19.9307 19.9972 20.1091 19.9999 20.4483L16 20.4795C15.993 19.5855 16.0777 18.3007 16.9686 17.3161C17.9078 16.278 19.2356 16.1057 20.3054 16.115L20.2705 20.1149ZM19.9999 20.4484C20.054 27.416 20.0329 34.3847 20.0229 41.3358L16.0229 41.3301C16.0329 34.3692 16.0539 27.4239 16 20.4795L19.9999 20.4484ZM20.0229 41.3357C20.0221 41.9184 20.0929 42.2638 20.1556 42.4389C20.2124 42.5977 20.2222 42.513 20.0725 42.4201C19.9191 42.3248 19.837 42.3686 19.9859 42.3494C20.1562 42.3275 20.4856 42.2368 20.9991 41.9668L22.8608 45.5071C21.4637 46.2418 19.5874 46.8277 17.9618 45.8178C16.3564 44.8206 16.0208 42.895 16.0229 41.3302L20.0229 41.3357ZM20.9996 41.9665C21.3428 41.7862 21.6888 41.5599 22.1115 41.2731C22.5071 41.0047 22.9985 40.6629 23.5124 40.362L25.5335 43.8139C25.1643 44.03 24.8113 44.2752 24.3571 44.5833C23.93 44.873 23.4211 45.2127 22.8602 45.5074L20.9996 41.9665ZM23.5119 40.3623C27.4872 38.0334 32.6613 39.0025 35.6333 42.5126L32.5806 45.0973C30.8245 43.0234 27.7786 42.4985 25.5339 43.8136L23.5119 40.3623ZM35.6334 42.5127C37.2112 44.3764 37.9163 46.8366 37.8951 49.1796C37.8739 51.5222 37.1244 53.9681 35.5089 55.797L32.511 53.1489C33.3705 52.1758 33.881 50.7187 33.8953 49.1433C33.9095 47.5683 33.4257 46.0955 32.5805 45.0972L35.6334 42.5127ZM35.5087 55.7972C32.4357 59.2752 27.3105 60.0027 23.3623 57.5907L25.4476 54.1772C27.7654 55.5932 30.7422 55.1508 32.5112 53.1487L35.5087 55.7972ZM23.3628 57.591C22.1263 56.8361 21.2974 56.2493 20.3333 55.8703L21.7965 52.1476C23.1884 52.6946 24.5016 53.5998 25.447 54.1769L23.3628 57.591ZM20.3341 55.8707C20.0544 55.7608 19.8964 55.7467 19.8453 55.7467C19.8232 55.7467 19.833 55.7493 19.866 55.7402C19.9007 55.7308 19.9495 55.7115 20.0022 55.6772C20.0551 55.6427 20.0956 55.6036 20.1227 55.5698C20.1489 55.5373 20.1547 55.5199 20.1498 55.5315C20.1372 55.5612 20.0907 55.6967 20.0878 55.9897L16.088 55.9503C16.1008 54.6483 16.5099 53.1788 17.8179 52.3262C19.1067 51.4861 20.6067 51.6805 21.7957 52.1472L20.3341 55.8707ZM20.0878 55.99C20.0129 63.4801 20.048 70.9454 20.0209 78.4662L16.0209 78.4518C16.0478 70.9805 16.013 63.4518 16.088 55.9499L20.0878 55.99ZM20.0209 78.4665C20.0201 78.6707 20.0545 78.6428 19.9897 78.5097C19.9547 78.4381 19.8999 78.3548 19.8216 78.2752C19.744 78.1962 19.6647 78.1424 19.6006 78.1084C19.5396 78.0761 19.5001 78.0657 19.4985 78.0653C19.4978 78.0651 19.5222 78.0714 19.5822 78.0781C19.6421 78.0847 19.7216 78.09 19.8293 78.0931C19.9375 78.0962 20.0577 78.0966 20.2026 78.096L20.2193 82.096C19.7446 82.0979 18.6515 82.1325 17.7275 81.6428C17.1746 81.3497 16.701 80.8919 16.3943 80.2628C16.1067 79.6729 16.0187 79.0423 16.0209 78.4514L20.0209 78.4665ZM20.2038 78.096C27.1981 78.071 34.1913 78.08 41.1784 78.085L41.1755 82.085C34.1846 82.08 27.2017 82.071 20.2181 82.096L20.2038 78.096ZM41.1782 78.085C42.0804 78.0855 42.9587 78.1758 43.7351 78.4357C44.5272 78.7007 45.3376 79.1878 45.8568 80.05C46.3771 80.914 46.4275 81.8594 46.2869 82.6852C46.1493 83.493 45.8123 84.3084 45.3853 85.1002L41.8646 83.2017C42.1831 82.6111 42.3073 82.2272 42.3436 82.0137C42.3769 81.8183 42.3138 81.9204 42.4303 82.1137C42.5456 82.3052 42.6617 82.2945 42.4659 82.2289C42.2546 82.1582 41.8515 82.0854 41.1757 82.085L41.1782 78.085ZM45.3851 85.1006C45.0541 85.7141 44.6331 86.3088 44.3616 86.7166L41.0323 84.4994C41.3987 83.9491 41.6498 83.5998 41.8648 83.2013L45.3851 85.1006ZM44.363 86.7144C42.7091 89.205 42.7797 91.8569 44.1694 93.7407L40.9505 96.1153C38.4142 92.6771 38.5928 88.1729 41.0308 84.5016L44.363 86.7144ZM44.1697 93.7412C45.5344 95.5923 48.4218 96.5329 51.1535 95.6841L52.3404 99.5039C48.2041 100.789 43.4574 99.5157 40.9501 96.1148L44.1697 93.7412ZM51.1532 95.6841C54.7523 94.5653 56.2514 90.3754 54.125 87.155L57.4629 84.9509C61.0284 90.3506 58.5335 97.5787 52.3406 99.5038L51.1532 95.6841ZM54.125 87.1551C53.6687 86.4642 52.9502 85.4688 52.4817 84.3945L56.1482 82.7954C56.4376 83.4591 56.8651 84.0458 57.4628 84.9508L54.125 87.1551ZM52.4818 84.3949C51.9308 83.1322 51.4773 81.4125 52.4049 79.9306C53.3462 78.4271 55.1079 78.1145 56.493 78.0952L56.5489 82.0948C56.0548 82.1017 55.7874 82.1645 55.672 82.2072C55.5776 82.2422 55.6896 82.222 55.7954 82.0531C55.8987 81.888 55.8648 81.7901 55.875 81.912C55.8867 82.0517 55.9471 82.3347 56.148 82.7951L52.4818 84.3949ZM56.4929 78.0952C60.8697 78.0339 65.2641 78.075 69.5984 78.076L69.5975 82.076C65.2138 82.075 60.8881 82.034 56.5489 82.0948L56.4929 78.0952ZM69.5979 78.076C72.443 78.076 75.3878 78.0318 78.3038 78.1046L78.204 82.1033C75.3541 82.0322 72.5248 82.076 69.5979 82.076V78.076ZM78.3028 78.1046C78.4135 78.1073 78.4918 78.1033 78.5434 78.098C78.5951 78.0927 78.611 78.087 78.6004 78.09C78.5886 78.0935 78.5472 78.1069 78.4894 78.1404C78.4297 78.175 78.365 78.2237 78.3045 78.2871C78.2445 78.3501 78.2031 78.4123 78.1767 78.4621C78.1514 78.5101 78.1439 78.5389 78.1446 78.5362C78.1455 78.5328 78.1528 78.5042 78.1593 78.4423C78.1658 78.3806 78.1705 78.2953 78.1699 78.1811L82.1699 78.1608C82.1741 78.9951 82.0506 80.1549 81.1993 81.0476C80.3169 81.973 79.1277 82.1259 78.2051 82.1034L78.3028 78.1046ZM78.1699 78.1803C78.1529 74.5221 78.1539 70.8646 78.1547 67.2131C78.1554 63.5598 78.1559 59.9124 78.1379 56.2658L82.1379 56.2461C82.1559 59.9045 82.1554 63.5621 82.1547 67.2139C82.1539 70.8673 82.1529 74.5149 82.1699 78.1617L78.1699 78.1803ZM78.1379 56.2658C78.136 55.8604 78.0809 55.6532 78.0522 55.5785C78.0314 55.5244 78.0591 55.6228 78.2025 55.7155C78.3408 55.8049 78.4234 55.783 78.329 55.7863C78.2189 55.79 77.9793 55.8269 77.5831 55.9825L76.1208 52.2594C77.3622 51.7718 78.9861 51.4593 80.3736 52.3559C81.7927 53.273 82.1313 54.9055 82.1379 56.2461L78.1379 56.2658ZM77.5834 55.9824C76.9946 56.2138 76.4052 56.5937 75.6405 57.1063L73.4134 53.7836C74.1286 53.3042 75.0653 52.6741 76.1205 52.2595L77.5834 55.9824ZM75.6404 57.1063C71.3091 60.0091 66.0504 59.6026 62.6167 55.7434L65.6051 53.0845C67.5774 55.3013 70.5707 55.6888 73.4135 53.7836L75.6404 57.1063ZM62.6168 55.7434C60.9994 53.9257 60.2849 51.453 60.2913 49.1096C60.2977 46.7631 61.0266 44.2865 62.6275 42.4363L65.6524 45.0536C64.8003 46.0384 64.2956 47.5263 64.2913 49.1205C64.2869 50.7179 64.7845 52.1622 65.6051 53.0845L62.6168 55.7434ZM62.6276 42.4361C65.9499 38.5974 71.1586 38.1136 75.4546 40.9012L73.2773 44.2567C70.4872 42.4463 67.54 42.8725 65.6522 45.0538L62.6276 42.4361ZM75.4545 40.9012C76.3348 41.4723 76.942 41.8834 77.5888 42.1361L76.1331 45.8618C75.0139 45.4245 74.003 44.7276 73.2773 44.2567L75.4545 40.9012ZM77.5883 42.1359C77.9666 42.2836 78.1899 42.3133 78.2853 42.315C78.3623 42.3164 78.2823 42.3004 78.157 42.3845C78.0319 42.4684 78.017 42.5477 78.0456 42.4744C78.0808 42.3843 78.1385 42.1654 78.1463 41.7586L82.1456 41.8353C82.1197 43.183 81.7599 44.7843 80.3851 45.7064C79.0088 46.6296 77.3903 46.3527 76.1335 45.862L77.5883 42.1359ZM78.1463 41.7585C78.1988 39.0287 78.1549 36.3299 78.1549 33.5309H82.1549C82.1549 36.242 82.199 39.0572 82.1456 41.8354L78.1463 41.7585ZM78.1549 33.5309C78.1549 29.2075 78.0988 24.8016 78.1843 20.4199L82.1835 20.498C82.099 24.8283 82.1549 29.1383 82.1549 33.5309H78.1549ZM78.1843 20.4196C78.1915 20.0552 78.1664 19.8617 78.1458 19.7726C78.1291 19.7007 78.1371 19.791 78.2488 19.9119C78.3657 20.0385 78.4696 20.0622 78.4278 20.0503C78.3626 20.0318 78.1796 19.9971 77.8027 20.0008L77.7632 16.001C78.854 15.9903 80.2201 16.1508 81.1873 17.198C82.1205 18.2084 82.2023 19.5437 82.1835 20.4982L78.1843 20.4196Z" fill="#F2F2F2" mask="url(#path-1-inside-1_220_1085)"/>
</svg>
