<svg width="99" height="99" viewBox="0 0 99 99" fill="none" xmlns="http://www.w3.org/2000/svg">
<g clip-path="url(#clip0_228_6320)">
<path d="M47.301 78.704H49.301C51.6908 78.704 54.0818 78.7023 56.4736 78.7007C63.7413 78.6956 71.0164 78.6906 78.2888 78.732H78.2892C78.2933 78.732 78.2974 78.732 78.3014 78.732C78.2827 75.267 78.286 71.8026 78.2893 68.3455L78.2895 68.1682C78.2929 64.6496 78.2959 61.1384 78.2754 57.6283C78.272 57.0424 78.2017 56.6716 78.1325 56.4612C77.8883 56.5207 77.4887 56.6826 76.9235 57.0465C76.8021 57.1247 76.6778 57.2056 76.5506 57.2885C74.7836 58.4394 72.4448 59.9627 69.3325 59.6707C65.4685 59.3081 62.0755 56.8591 60.9172 53.0624L60.9172 53.0623C59.6096 48.7752 60.8816 44.1099 64.4094 41.5521C67.5651 39.2635 72.0368 39.3074 75.326 41.4272L75.3261 41.4273C75.5041 41.542 75.6725 41.6518 75.8331 41.7567C76.6482 42.2884 77.2654 42.691 77.9406 42.9502C78.056 42.9944 78.1516 43.0228 78.2281 43.0407C78.2332 42.9895 78.2368 42.9288 78.2375 42.8575C78.2977 36.8023 78.2862 30.7477 78.2747 24.6795C78.2723 23.3832 78.2698 22.0864 78.2681 20.7888C78.2557 20.7888 78.2431 20.7888 78.2302 20.7889C78.191 20.789 78.1494 20.7891 78.104 20.7891C76.7178 20.7908 75.3299 20.7941 73.9405 20.7974C68.5458 20.8103 63.1298 20.8232 57.7191 20.7379L47.301 78.704ZM47.301 78.704V78.713M47.301 78.704V78.713M47.301 78.713H21.2666C20.8201 78.713 20.4869 78.712 20.2292 78.7057C20.2227 78.4436 20.2217 78.1042 20.2217 77.6481C20.2217 75.7382 20.2226 73.8273 20.2235 71.9159C20.2257 67.0473 20.2279 62.1748 20.2157 57.3038V57.3036C20.2118 55.8177 19.8665 53.9935 18.3121 53.0336C16.7617 52.0762 14.9751 52.5775 13.6391 53.2343C12.9301 53.5827 12.1996 54.0872 11.6459 54.4695C11.4646 54.5947 11.3023 54.7068 11.1659 54.796C9.1885 56.0891 6.39286 55.9841 4.65739 54.6523C2.76479 53.1995 1.85497 50.2479 2.69699 47.6652L2.69719 47.6646C3.46096 45.3193 5.26877 43.971 7.77079 43.7926C9.23886 43.6879 10.2679 44.2849 11.9208 45.2439C12.2503 45.4351 12.6045 45.6406 12.992 45.8578L12.9924 45.8581C13.6853 46.2463 14.5058 46.5254 15.3165 46.6585C16.1045 46.7879 17.0705 46.8099 17.9769 46.4923L17.9771 46.4923C18.8383 46.1904 19.2707 45.4951 19.4455 45.1731C19.6601 44.7781 19.7995 44.3516 19.8934 43.9901C20.0834 43.2592 20.1775 42.4374 20.1846 41.7928L20.1846 41.7922C20.2382 36.8094 20.2326 31.8208 20.227 26.8458C20.2249 25.0407 20.2229 23.2375 20.2237 21.437C20.2239 21.1877 20.2244 20.9771 20.2269 20.793C20.4307 20.7898 20.6652 20.7893 20.946 20.7891C20.9462 20.7891 20.9463 20.7891 20.9464 20.7891L47.301 78.713ZM52.4902 18.4295L52.4901 18.4292C51.9611 17.2942 52.1946 16.0379 52.4121 15.273C52.6604 14.3999 53.0745 13.5345 53.5137 12.8636L53.5142 12.8629C54.8694 10.7947 55.5078 9.26998 55.106 7.40556L55.1059 7.40544C54.8404 6.1731 54.3264 5.24431 53.6291 4.5633C52.9304 3.88093 51.949 3.35123 50.5978 3.07727L50.5977 3.07723C47.8957 2.52914 45.4863 3.51507 44.0922 5.57844L44.0921 5.57852C42.9832 7.21954 42.97 9.86177 44.181 11.6999L44.1811 11.7C44.272 11.8379 44.3827 11.9979 44.5053 12.1749C44.924 12.7795 45.4806 13.5833 45.8528 14.3886L45.853 14.389C46.4475 15.6759 46.8673 17.3734 45.9654 18.8551C45.0519 20.3559 43.3366 20.7363 41.9134 20.7638L52.4902 18.4295ZM52.4902 18.4295C52.8263 19.1504 53.4081 19.5775 53.8163 19.815M52.4902 18.4295L53.8163 19.815M53.8163 19.815C54.254 20.0698 54.7301 20.2438 55.1574 20.3658M53.8163 19.815L55.1574 20.3658M55.1574 20.3658C56.0128 20.6099 56.9613 20.7261 57.7189 20.7379L55.1574 20.3658ZM78.3143 56.4339C78.3144 56.434 78.3127 56.4339 78.3093 56.4336C78.3126 56.4336 78.3143 56.4338 78.3143 56.4339ZM47.3008 80.713C47.3006 80.7105 47.3005 80.6961 47.301 80.6731V80.704C47.301 80.709 47.3009 80.712 47.3009 80.713C47.3008 80.7135 47.3008 80.7135 47.3008 80.713ZM19.601 78.6568C19.6013 78.6566 19.6067 78.6578 19.6164 78.6606C19.6056 78.6583 19.6007 78.6569 19.601 78.6568ZM20.2748 79.3184C20.2777 79.3281 20.2788 79.3335 20.2787 79.3338C20.2785 79.334 20.2771 79.3292 20.2748 79.3184ZM49.301 80.704C51.6938 80.704 54.0866 80.7023 56.4794 80.7007C63.7457 80.6956 71.0118 80.6906 78.2774 80.7319L49.301 80.704ZM20.2657 20.0967C20.2679 20.0846 20.2694 20.0791 20.2696 20.0794C20.2697 20.0797 20.2686 20.0858 20.2657 20.0967Z" stroke="#ECB731" stroke-width="4"/>
</g>
<defs>
<clipPath id="clip0_228_6320">
<rect width="98" height="98" fill="white" transform="translate(0.333359 0.867432)"/>
</clipPath>
</defs>
</svg>
