<svg width="98" height="98" viewBox="0 0 98 98" fill="none" xmlns="http://www.w3.org/2000/svg">
<mask id="path-1-inside-1_220_1091" fill="white">
<path d="M49.126 79.847C39.513 79.847 29.9 79.803 20.288 79.885C18.455 79.901 17.987 79.204 18 77.536C18.054 70.58 18.033 63.623 18.023 56.667C18.019 53.786 19.376 52.92 21.93 54.263C22.834 54.738 23.64 55.395 24.523 55.912C27.633 57.734 31.743 56.987 34.107 54.195C36.53 51.333 36.485 46.329 34.01 43.527C31.589 40.787 27.538 40.202 24.405 42.116C23.314 42.782 22.243 43.528 21.065 43.991C19.269 44.696 18.107 43.959 18.088 42.03C18.013 34.534 18.048 27.037 18.021 19.541C18.015 17.951 19.012 17.899 20.211 17.904C27.2 17.929 34.188 17.92 41.177 17.915C44.333 17.913 45.116 16.614 43.625 13.849C43.352 13.343 43.016 12.871 42.697 12.392C40.651 9.311 40.597 5.733 42.56 3.072C44.496 0.445999 48.313 -0.661002 51.747 0.405999C56.643 1.928 58.64 7.637 55.794 11.947C55.267 12.745 54.694 13.536 54.315 14.405C53.307 16.715 54.015 17.87 56.521 17.905C60.879 17.966 65.2389 17.925 69.5979 17.924C72.4839 17.924 75.3709 17.968 78.2539 17.896C79.6869 17.861 80.177 18.451 80.17 19.829C80.136 27.134 80.1739 34.439 80.1379 41.744C80.1269 43.983 78.978 44.714 76.852 43.879C76.03 43.556 75.267 43.051 74.527 42.555C70.94 40.151 66.8139 40.548 64.1109 43.586C61.673 46.326 61.687 51.42 64.14 54.255C66.745 57.265 70.8229 57.72 74.3659 55.421C75.1689 54.9 75.9779 54.346 76.8609 54.001C78.9509 53.185 80.103 53.959 80.146 56.203C80.199 58.957 80.1549 61.714 80.1549 64.469C80.1549 68.827 80.099 73.185 80.184 77.541C80.219 79.322 79.707 80.0181 77.783 79.9991"/>
</mask>
<path d="M20.288 79.885L20.2709 77.8851L20.2705 77.8851L20.288 79.885ZM18 77.536L19.9999 77.5516L19.9999 77.5516L18 77.536ZM18.023 56.667L16.023 56.6698L16.023 56.6699L18.023 56.667ZM21.93 54.263L20.9991 56.0332L20.9997 56.0335L21.93 54.263ZM24.523 55.912L25.5339 54.1864L25.5335 54.1861L24.523 55.912ZM34.107 54.195L35.6333 55.4874L35.6334 55.4873L34.107 54.195ZM34.01 43.527L35.5089 42.203L35.5087 42.2028L34.01 43.527ZM24.405 42.116L25.447 43.8231L25.4476 43.8227L24.405 42.116ZM21.065 43.991L21.7957 45.8527L21.7966 45.8524L21.065 43.991ZM18.088 42.03L20.0879 42.0103L20.0879 42.01L18.088 42.03ZM18.021 19.541L20.0209 19.5338L20.0209 19.5335L18.021 19.541ZM20.211 17.904L20.2026 19.904L20.2038 19.904L20.211 17.904ZM41.177 17.915L41.1757 15.915L41.1755 15.915L41.177 17.915ZM43.625 13.849L45.3853 12.8997L45.3851 12.8994L43.625 13.849ZM42.697 12.392L41.0309 13.4984L41.0323 13.5006L42.697 12.392ZM42.56 3.072L44.1694 4.25928L44.1698 4.25882L42.56 3.072ZM51.747 0.405999L52.3407 -1.50385L52.3404 -1.50393L51.747 0.405999ZM55.794 11.947L57.4629 13.0492L57.4629 13.0491L55.794 11.947ZM54.315 14.405L56.148 15.2049L56.1482 15.2045L54.315 14.405ZM56.521 17.905L56.5489 15.9052L56.5489 15.9052L56.521 17.905ZM69.5979 17.924L69.5979 15.924L69.5975 15.924L69.5979 17.924ZM78.2539 17.896L78.2051 15.8966L78.204 15.8966L78.2539 17.896ZM80.17 19.829L78.17 19.8189L78.17 19.8197L80.17 19.829ZM80.1379 41.744L78.138 41.7342L78.138 41.7342L80.1379 41.744ZM76.852 43.879L76.1205 45.7405L76.1208 45.7406L76.852 43.879ZM74.527 42.555L75.6405 40.8937L75.6404 40.8936L74.527 42.555ZM64.1109 43.586L65.6051 44.9155L65.6051 44.9155L64.1109 43.586ZM64.14 54.255L62.6275 55.5637L62.6277 55.5638L64.14 54.255ZM74.3659 55.421L73.2774 53.7432L73.2773 53.7433L74.3659 55.421ZM76.8609 54.001L76.1336 52.138L76.1331 52.1382L76.8609 54.001ZM80.146 56.203L78.1463 56.2414L78.1463 56.2415L80.146 56.203ZM80.184 77.541L78.1843 77.5801L78.1843 77.5803L80.184 77.541ZM49.126 77.847C39.5252 77.847 29.8943 77.803 20.2709 77.8851L20.305 81.885C29.9056 81.8031 39.5007 81.847 49.126 81.847V77.847ZM20.2705 77.8851C19.923 77.8882 19.7657 77.8542 19.7226 77.8415C19.7077 77.8371 19.7315 77.8424 19.7771 77.8695C19.8253 77.8982 19.8818 77.9416 19.9348 78.0002C20.0462 78.1234 20.0562 78.2152 20.0408 78.1498C20.0218 78.0693 19.9973 77.8909 19.9999 77.5516L16 77.5205C15.993 78.4145 16.0777 79.6992 16.9687 80.6839C17.9079 81.7219 19.2357 81.8943 20.3054 81.885L20.2705 77.8851ZM19.9999 77.5516C20.054 70.584 20.0329 63.6153 20.023 56.6642L16.023 56.6699C16.033 63.6308 16.0539 70.5761 16 77.5205L19.9999 77.5516ZM20.023 56.6643C20.0221 56.0816 20.0929 55.7362 20.1556 55.5611C20.2124 55.4023 20.2222 55.487 20.0726 55.5799C19.9192 55.6752 19.837 55.6314 19.9859 55.6505C20.1563 55.6725 20.4856 55.7632 20.9991 56.0332L22.8608 52.4929C21.4638 51.7582 19.5874 51.1723 17.9619 52.1821C16.3565 53.1794 16.0208 55.105 16.023 56.6698L20.023 56.6643ZM20.9997 56.0335C21.3428 56.2138 21.6889 56.4401 22.1115 56.7268C22.5071 56.9953 22.9986 57.3371 23.5124 57.638L25.5335 54.1861C25.1643 53.97 24.8113 53.7248 24.3572 53.4167C23.93 53.1269 23.4211 52.7873 22.8602 52.4926L20.9997 56.0335ZM23.512 57.6377C27.4873 59.9666 32.6613 58.9975 35.6333 55.4874L32.5806 52.9027C30.8246 54.9766 27.7786 55.5014 25.5339 54.1864L23.512 57.6377ZM35.6334 55.4873C37.2112 53.6236 37.9164 51.1634 37.8951 48.8204C37.8739 46.4778 37.1244 44.0319 35.5089 42.203L32.511 44.8511C33.3705 45.8242 33.881 47.2813 33.8953 48.8567C33.9096 50.4316 33.4257 51.9045 32.5805 52.9027L35.6334 55.4873ZM35.5087 42.2028C32.4357 38.7248 27.3105 37.9973 23.3623 40.4093L25.4476 43.8227C27.7654 42.4068 30.7422 42.8492 32.5112 44.8513L35.5087 42.2028ZM23.3629 40.409C22.1263 41.1638 21.2975 41.7507 20.3334 42.1296L21.7966 45.8524C23.1884 45.3053 24.5016 44.4002 25.447 43.8231L23.3629 40.409ZM20.3342 42.1293C20.0544 42.2391 19.8964 42.2533 19.8453 42.2533C19.8232 42.2533 19.833 42.2507 19.8661 42.2598C19.9007 42.2692 19.9495 42.2884 20.0022 42.3228C20.0552 42.3573 20.0956 42.3964 20.1228 42.4302C20.1489 42.4627 20.1547 42.4801 20.1498 42.4685C20.1372 42.4388 20.0907 42.3033 20.0879 42.0103L16.0881 42.0497C16.1009 43.3517 16.5099 44.8211 17.8179 45.6737C19.1067 46.5139 20.6067 46.3195 21.7957 45.8527L20.3342 42.1293ZM20.0879 42.01C20.0129 34.5199 20.048 27.0545 20.0209 19.5338L16.021 19.5482C16.0479 27.0195 16.013 34.5482 16.0881 42.05L20.0879 42.01ZM20.0209 19.5335C20.0202 19.3293 20.0546 19.3572 19.9897 19.4903C19.9548 19.5619 19.8999 19.6451 19.8216 19.7248C19.744 19.8038 19.6648 19.8576 19.6006 19.8916C19.5396 19.9239 19.5001 19.9343 19.4985 19.9347C19.4978 19.9349 19.5222 19.9286 19.5823 19.9219C19.6421 19.9153 19.7217 19.91 19.8294 19.9069C19.9376 19.9038 20.0577 19.9034 20.2026 19.904L20.2193 15.904C19.7447 15.902 18.6516 15.8675 17.7275 16.3572C17.1746 16.6503 16.7011 17.1081 16.3943 17.7372C16.1067 18.3271 16.0187 18.9577 16.021 19.5486L20.0209 19.5335ZM20.2038 19.904C27.1981 19.929 34.1913 19.92 41.1784 19.915L41.1755 15.915C34.1846 15.92 27.2018 15.929 20.2181 15.904L20.2038 19.904ZM41.1782 19.915C42.0804 19.9144 42.9587 19.8241 43.7352 19.5643C44.5272 19.2993 45.3376 18.8121 45.8569 17.9499C46.3772 17.086 46.4275 16.1406 46.2869 15.3148C46.1493 14.507 45.8123 13.6916 45.3853 12.8997L41.8646 14.7983C42.1831 15.3889 42.3073 15.7728 42.3437 15.9863C42.3769 16.1817 42.3139 16.0796 42.4303 15.8863C42.5457 15.6948 42.6618 15.7055 42.4659 15.771C42.2546 15.8418 41.8515 15.9146 41.1757 15.915L41.1782 19.915ZM45.3851 12.8994C45.0541 12.2858 44.6331 11.6912 44.3616 11.2834L41.0323 13.5006C41.3988 14.0508 41.6498 14.4002 41.8648 14.7987L45.3851 12.8994ZM44.363 11.2856C42.7091 8.79496 42.7797 6.14312 44.1694 4.25928L40.9505 1.88472C38.4142 5.32288 38.5928 9.82705 41.0309 13.4984L44.363 11.2856ZM44.1698 4.25882C45.5345 2.40771 48.4218 1.46713 51.1535 2.31593L52.3404 -1.50393C48.2041 -2.78914 43.4574 -1.51571 40.9501 1.88518L44.1698 4.25882ZM51.1532 2.31584C54.7524 3.43469 56.2514 7.62461 54.125 10.8449L57.4629 13.0491C61.0285 7.6494 58.5335 0.421311 52.3407 -1.50385L51.1532 2.31584ZM54.125 10.8449C53.6687 11.5358 52.9503 12.5312 52.4817 13.6055L56.1482 15.2045C56.4376 14.5409 56.8652 13.9542 57.4629 13.0492L54.125 10.8449ZM52.4819 13.6051C51.9309 14.8678 51.4773 16.5875 52.405 18.0693C53.3462 19.5729 55.108 19.8855 56.493 19.9048L56.5489 15.9052C56.0548 15.8983 55.7874 15.8355 55.672 15.7928C55.5776 15.7578 55.6897 15.7779 55.7954 15.9469C55.8988 16.112 55.8649 16.2099 55.875 16.0879C55.8867 15.9483 55.9472 15.6652 56.148 15.2049L52.4819 13.6051ZM56.493 19.9048C60.8697 19.9661 65.2641 19.925 69.5984 19.924L69.5975 15.924C65.2138 15.925 60.8882 15.9659 56.5489 15.9052L56.493 19.9048ZM69.5979 19.924C72.4431 19.924 75.3878 19.9682 78.3039 19.8954L78.204 15.8966C75.3541 15.9678 72.5248 15.924 69.5979 15.924V19.924ZM78.3028 19.8954C78.4135 19.8927 78.4918 19.8967 78.5435 19.902C78.5951 19.9073 78.611 19.913 78.6004 19.91C78.5886 19.9065 78.5472 19.8931 78.4894 19.8596C78.4297 19.825 78.365 19.7763 78.3046 19.7129C78.2445 19.6499 78.2032 19.5877 78.1768 19.5378C78.1514 19.4899 78.1439 19.4611 78.1446 19.4638C78.1456 19.4672 78.1528 19.4958 78.1593 19.5576C78.1658 19.6193 78.1706 19.7047 78.17 19.8189L82.1699 19.8392C82.1742 19.0049 82.0506 17.845 81.1993 16.9524C80.3169 16.027 79.1277 15.8741 78.2051 15.8966L78.3028 19.8954ZM78.17 19.8197C78.1529 23.4779 78.154 27.1354 78.1547 30.7869C78.1554 34.4402 78.1559 38.0876 78.138 41.7342L82.1379 41.7539C82.156 38.0954 82.1554 34.4379 82.1547 30.7861C82.1539 27.1327 82.153 23.4851 82.1699 19.8383L78.17 19.8197ZM78.138 41.7342C78.136 42.1395 78.081 42.3468 78.0522 42.4215C78.0314 42.4756 78.0592 42.3772 78.2026 42.2845C78.3409 42.1951 78.4235 42.217 78.3291 42.2137C78.2189 42.21 77.9793 42.1731 77.5831 42.0175L76.1208 45.7406C77.3622 46.2282 78.9861 46.5407 80.3736 45.6441C81.7927 44.727 82.1313 43.0944 82.1379 41.7539L78.138 41.7342ZM77.5834 42.0176C76.9946 41.7862 76.4052 41.4063 75.6405 40.8937L73.4134 44.2164C74.1287 44.6958 75.0653 45.3258 76.1205 45.7405L77.5834 42.0176ZM75.6404 40.8936C71.3092 37.9908 66.0504 38.3973 62.6168 42.2566L65.6051 44.9155C67.5775 42.6987 70.5708 42.3112 73.4135 44.2164L75.6404 40.8936ZM62.6168 42.2566C60.9994 44.0743 60.2849 46.547 60.2913 48.8904C60.2977 51.2369 61.0266 53.7134 62.6275 55.5637L65.6524 52.9464C64.8003 51.9616 64.2957 50.4737 64.2913 48.8794C64.287 47.2821 64.7845 45.8377 65.6051 44.9155L62.6168 42.2566ZM62.6277 55.5638C65.9499 59.4026 71.1586 59.8864 75.4546 57.0988L73.2773 53.7433C70.4873 55.5537 67.54 55.1275 65.6522 52.9462L62.6277 55.5638ZM75.4545 57.0988C76.3348 56.5277 76.942 56.1166 77.5888 55.8639L76.1331 52.1382C75.0139 52.5755 74.0031 53.2724 73.2774 53.7432L75.4545 57.0988ZM77.5883 55.8641C77.9667 55.7164 78.1899 55.6867 78.2853 55.685C78.3623 55.6836 78.2823 55.6996 78.157 55.6155C78.0319 55.5316 78.017 55.4522 78.0456 55.5255C78.0809 55.6157 78.1385 55.8346 78.1463 56.2414L82.1456 56.1647C82.1198 54.817 81.7599 53.2157 80.3851 52.2936C79.0088 51.3704 77.3903 51.6473 76.1336 52.138L77.5883 55.8641ZM78.1463 56.2415C78.1989 58.9713 78.1549 61.67 78.1549 64.469H82.1549C82.1549 61.758 82.199 58.9428 82.1456 56.1646L78.1463 56.2415ZM78.1549 64.469C78.1549 68.7924 78.0988 73.1984 78.1843 77.5801L82.1836 77.502C82.0991 73.1717 82.1549 68.8616 82.1549 64.469H78.1549ZM78.1843 77.5803C78.1915 77.9447 78.1665 78.1383 78.1458 78.2273C78.1291 78.2993 78.1371 78.209 78.2488 78.0881C78.3658 77.9615 78.4696 77.9378 78.4278 77.9497C78.3626 77.9682 78.1796 78.0029 77.8027 77.9991L77.7632 81.999C78.854 82.0097 80.2201 81.8492 81.1873 80.802C82.1205 79.7916 82.2023 78.4563 82.1836 77.5018L78.1843 77.5803Z" fill="#F2F2F2" mask="url(#path-1-inside-1_220_1091)"/>
</svg>
