<svg width="98" height="98" viewBox="0 0 98 98" fill="none" xmlns="http://www.w3.org/2000/svg">
<g clip-path="url(#clip0_220_1104)">
<mask id="path-1-inside-1_220_1104" fill="white">
<path d="M79.9646 56.424C79.9446 63.4 79.9606 70.3761 79.9636 77.3511C79.9646 79.8941 79.8966 79.9731 77.4066 79.9741C67.8646 79.9781 58.3216 79.9751 48.7796 79.9731C39.3656 79.9711 29.9506 79.9721 20.5366 79.9701C17.9706 79.9691 17.9196 79.9641 17.9076 77.4701C17.8776 70.8171 17.8966 64.163 17.8926 57.51C17.8926 57 17.8966 56.487 17.8516 55.98C17.6806 54.034 16.7196 53.344 14.8856 54.027C13.8846 54.4 12.9676 55.032 12.0636 55.625C8.21762 58.15 3.35362 57.064 1.09762 53.15C-1.19138 49.179 0.225623 43.711 4.15862 41.858C6.79562 40.616 9.47562 40.625 11.9966 42.355C12.7856 42.896 13.5896 43.444 14.4546 43.84C16.6306 44.837 17.8086 44.148 17.8536 41.766C17.9276 37.864 17.8746 33.959 17.8746 30.056C17.8746 26.728 17.9056 23.4 17.8616 20.073C17.8426 18.644 18.3136 18.002 19.8656 18.013C27.1656 18.067 34.4656 18.011 41.7656 18.038C43.9376 18.046 44.6786 19.106 43.9106 21.137C43.5326 22.135 42.9056 23.049 42.3246 23.958C40.1826 27.312 40.6326 31.401 43.4476 33.894C46.3266 36.443 51.3976 36.485 54.2616 33.983C57.2186 31.4 57.7036 27.315 55.5326 23.908C54.8546 22.844 54.2306 21.706 53.8246 20.518C53.3246 19.056 54.0356 18.082 55.5776 18.072C63.1976 18.023 70.8176 18.044 78.4376 18.028C79.9606 18.025 79.9596 19.052 79.9586 20.134C79.9536 27.046 79.9176 33.958 79.9986 40.869"/>
</mask>
<path d="M79.9636 77.3511L81.9636 77.3503L81.9636 77.3502L79.9636 77.3511ZM77.4066 79.9741L77.4058 77.9741L77.4058 77.9741L77.4066 79.9741ZM48.7796 79.9731L48.7792 81.9731L48.7792 81.9731L48.7796 79.9731ZM20.5366 79.9701L20.5358 81.9701L20.5362 81.9701L20.5366 79.9701ZM17.9076 77.4701L15.9076 77.4791L15.9076 77.4797L17.9076 77.4701ZM17.8926 57.51L15.8926 57.51L15.8926 57.5112L17.8926 57.51ZM17.8516 55.98L15.8593 56.1551L15.8595 56.1569L17.8516 55.98ZM14.8856 54.027L14.1876 52.1528L14.1873 52.1529L14.8856 54.027ZM12.0636 55.625L10.9666 53.9527L10.966 53.9532L12.0636 55.625ZM1.09762 53.15L2.83039 52.1513L2.83036 52.1512L1.09762 53.15ZM4.15862 41.858L3.30643 40.0487L3.30621 40.0488L4.15862 41.858ZM11.9966 42.355L10.865 44.0041L10.8656 44.0045L11.9966 42.355ZM14.4546 43.84L15.2877 42.0218L15.2871 42.0215L14.4546 43.84ZM17.8536 41.766L15.854 41.7281L15.854 41.7283L17.8536 41.766ZM17.8616 20.073L19.8614 20.0466L19.8614 20.0464L17.8616 20.073ZM19.8656 18.013L19.8804 16.0131L19.8798 16.0131L19.8656 18.013ZM41.7656 18.038L41.7582 20.038L41.7583 20.038L41.7656 18.038ZM43.9106 21.137L45.781 21.8454L45.7813 21.8444L43.9106 21.137ZM42.3246 23.958L40.6394 22.8809L40.639 22.8815L42.3246 23.958ZM43.4476 33.894L42.1216 35.3913L42.1218 35.3915L43.4476 33.894ZM54.2616 33.983L52.9459 32.4768L52.9458 32.4768L54.2616 33.983ZM55.5326 23.908L57.2193 22.8332L57.2193 22.8332L55.5326 23.908ZM53.8246 20.518L55.7172 19.8712L55.717 19.8708L53.8246 20.518ZM55.5776 18.072L55.5648 16.0721L55.5647 16.0721L55.5776 18.072ZM78.4376 18.028L78.4337 16.028L78.4334 16.028L78.4376 18.028ZM79.9586 20.134L77.9586 20.1322L77.9586 20.1326L79.9586 20.134ZM77.9646 56.4183C77.9446 63.3987 77.9606 70.3819 77.9636 77.3519L81.9636 77.3502C81.9606 70.3702 81.9446 63.4014 81.9646 56.4298L77.9646 56.4183ZM77.9636 77.3518C77.9637 77.6702 77.9627 77.9248 77.9569 78.1399C77.951 78.3571 77.9411 78.4968 77.9298 78.5881C77.9019 78.8135 77.8893 78.5263 78.1847 78.2222C78.4894 77.9086 78.7928 77.9124 78.5938 77.9388C78.5119 77.9496 78.3811 77.96 78.1713 77.9663C77.9638 77.9725 77.7169 77.9739 77.4058 77.9741L77.4074 81.9741C77.9948 81.9738 78.6069 81.972 79.1197 81.904C79.6337 81.8359 80.421 81.6608 81.0538 81.0094C81.6773 80.3676 81.8371 79.5838 81.8996 79.079C81.9629 78.5666 81.9639 77.9511 81.9636 77.3503L77.9636 77.3518ZM77.4058 77.9741C67.8646 77.9781 58.3224 77.9751 48.78 77.9731L48.7792 81.9731C58.3209 81.9751 67.8647 81.9781 77.4075 81.9741L77.4058 77.9741ZM48.78 77.9731C44.0729 77.9721 39.3655 77.9718 34.6582 77.9716C29.951 77.9713 25.2439 77.9711 20.537 77.9701L20.5362 81.9701C25.2434 81.9711 29.9508 81.9713 34.658 81.9716C39.3653 81.9718 44.0724 81.9721 48.7792 81.9731L48.78 77.9731ZM20.5374 77.9701C20.2112 77.9699 19.9515 77.9697 19.7287 77.9651C19.5044 77.9604 19.3584 77.952 19.2601 77.9413C19.1582 77.9303 19.166 77.9227 19.2306 77.9449C19.3092 77.9719 19.4671 78.0415 19.6301 78.1938C19.9725 78.5139 19.9715 78.8478 19.9453 78.6498C19.9347 78.5701 19.9245 78.441 19.9178 78.2303C19.9112 78.0219 19.9091 77.7743 19.9076 77.4604L15.9076 77.4797C15.9104 78.0616 15.9131 78.6713 15.98 79.1756C16.0469 79.68 16.2213 80.4829 16.8987 81.116C17.5547 81.7292 18.3491 81.8661 18.8299 81.9181C19.328 81.972 19.9397 81.9698 20.5358 81.9701L20.5374 77.9701ZM19.9076 77.461C19.8776 70.8129 19.8966 64.1714 19.8926 57.5088L15.8926 57.5112C15.8966 64.1546 15.8776 70.8212 15.9076 77.4791L19.9076 77.461ZM19.8926 57.51C19.8926 57.0314 19.8984 56.418 19.8438 55.8032L15.8595 56.1569C15.8949 56.5561 15.8926 56.9686 15.8926 57.51H19.8926ZM19.8439 55.805C19.7411 54.6347 19.361 53.2011 18.109 52.3585C16.819 51.4903 15.3309 51.727 14.1876 52.1528L15.5836 55.9013C15.8988 55.7839 16.0612 55.7705 16.1042 55.7704C16.1201 55.7703 16.0983 55.7723 16.0504 55.759C16.0001 55.745 15.938 55.7189 15.8755 55.6769C15.7411 55.5864 15.7158 55.5003 15.7405 55.5569C15.7709 55.6268 15.8288 55.8075 15.8593 56.1551L19.8439 55.805ZM14.1873 52.1529C12.926 52.6229 11.7928 53.4108 10.9666 53.9527L13.1606 57.2973C14.1424 56.6533 14.8433 56.1772 15.584 55.9012L14.1873 52.1529ZM10.966 53.9532C8.04159 55.8731 4.48844 55.0279 2.83039 52.1513L-0.635146 54.1488C2.2188 59.1002 8.39366 60.427 13.1613 57.2969L10.966 53.9532ZM2.83036 52.1512C1.03989 49.0451 2.28523 44.9515 5.01104 43.6673L3.30621 40.0488C-1.83398 42.4705 -3.42264 49.313 -0.635119 54.1488L2.83036 52.1512ZM5.01081 43.6674C7.09811 42.6843 9.01001 42.7311 10.865 44.0041L13.1283 40.706C9.94124 38.5189 6.49314 38.5478 3.30643 40.0487L5.01081 43.6674ZM10.8656 44.0045C11.6333 44.5309 12.5755 45.1794 13.6221 45.6585L15.2871 42.0215C14.6037 41.7087 13.9379 41.2612 13.1276 40.7055L10.8656 44.0045ZM13.6215 45.6583C14.8481 46.2203 16.52 46.6679 17.9869 45.7824C19.4823 44.8796 19.8275 43.1681 19.8533 41.8038L15.854 41.7283C15.8455 42.1792 15.7834 42.4138 15.7479 42.5043C15.7207 42.5736 15.7508 42.4599 15.9196 42.358C16.0836 42.259 16.183 42.2894 16.0807 42.28C15.9617 42.269 15.7062 42.2136 15.2877 42.0218L13.6215 45.6583ZM19.8533 41.804C19.9277 37.8773 19.8746 33.9222 19.8746 30.056H15.8746C15.8746 33.9958 15.9275 37.8508 15.854 41.7281L19.8533 41.804ZM19.8746 30.056C19.8746 26.7532 19.9057 23.3908 19.8614 20.0466L15.8618 20.0995C15.9056 23.4092 15.8746 26.7028 15.8746 30.056H19.8746ZM19.8614 20.0464C19.8606 19.9849 19.8612 19.93 19.8628 19.8812C19.8645 19.8323 19.8671 19.7907 19.8703 19.7557C19.8735 19.7206 19.8772 19.6933 19.8805 19.673C19.8838 19.6526 19.8866 19.6404 19.8879 19.6353C19.8906 19.6245 19.8861 19.6467 19.8646 19.6895C19.8538 19.711 19.839 19.737 19.8194 19.7657C19.7997 19.7945 19.7764 19.8243 19.7493 19.8539C19.7222 19.8835 19.6932 19.9108 19.6632 19.9353C19.6332 19.9597 19.6043 19.9796 19.578 19.9954C19.5251 20.0274 19.4896 20.0389 19.4854 20.0402C19.4834 20.0408 19.4889 20.039 19.5032 20.0361C19.5175 20.0332 19.5396 20.0293 19.5706 20.0256C19.6015 20.0219 19.6401 20.0185 19.6873 20.0161C19.7344 20.0138 19.7889 20.0125 19.8514 20.013L19.8798 16.0131C18.9033 16.0061 17.6829 16.1879 16.7997 17.1521C15.953 18.0765 15.8507 19.2616 15.8618 20.0996L19.8614 20.0464ZM19.8508 20.013C27.1394 20.0669 34.5049 20.0112 41.7582 20.038L41.773 16.038C34.4264 16.0109 27.1918 16.0672 19.8804 16.0131L19.8508 20.013ZM41.7583 20.038C42.1548 20.0395 42.3619 20.0905 42.4404 20.1191C42.5015 20.1414 42.4001 20.117 42.2975 19.9691C42.1943 19.8204 42.2058 19.7138 42.205 19.7732C42.2041 19.8522 42.1795 20.0604 42.0399 20.4296L45.7813 21.8444C46.237 20.6394 46.5206 19.0388 45.5838 17.6887C44.6506 16.344 43.0566 16.0428 41.773 16.038L41.7583 20.038ZM42.0403 20.4286C41.755 21.1819 41.2801 21.8786 40.6394 22.8809L44.0098 25.0351C44.5312 24.2194 45.3103 23.0881 45.781 21.8454L42.0403 20.4286ZM40.639 22.8815C38.0193 26.9836 38.4997 32.1836 42.1216 35.3913L44.7736 32.3968C42.7655 30.6184 42.3459 27.6405 44.0102 25.0345L40.639 22.8815ZM42.1218 35.3915C43.9846 37.0407 46.4649 37.813 48.8438 37.8326C51.2214 37.8522 53.7093 37.1212 55.5774 35.4892L52.9458 32.4768C51.9499 33.3469 50.4704 33.8459 48.8767 33.8327C47.2844 33.8196 45.7896 33.2963 44.7734 32.3966L42.1218 35.3915ZM55.5774 35.4893C59.3296 32.2116 59.8846 27.016 57.2193 22.8332L53.846 24.9828C55.5226 27.6141 55.1076 30.5884 52.9459 32.4768L55.5774 35.4893ZM57.2193 22.8332C56.5828 21.8344 56.0508 20.8475 55.7172 19.8712L51.9321 21.1648C52.4104 22.5645 53.1264 23.8536 53.846 24.9828L57.2193 22.8332ZM55.717 19.8708C55.6589 19.7008 55.6676 19.6353 55.666 19.6577C55.6651 19.671 55.661 19.7061 55.6437 19.7562C55.6262 19.8071 55.5982 19.8639 55.5581 19.9196C55.518 19.9753 55.4738 20.0186 55.4334 20.0497C55.3938 20.0802 55.3647 20.0937 55.3561 20.0973C55.3425 20.103 55.408 20.0732 55.5906 20.072L55.5647 16.0721C54.4115 16.0795 53.1219 16.4582 52.3127 17.5814C51.4983 18.7118 51.5547 20.0612 51.9322 21.1652L55.717 19.8708ZM55.5905 20.072C63.2058 20.023 70.8078 20.044 78.4418 20.028L78.4334 16.028C70.8275 16.044 63.1894 16.023 55.5648 16.0721L55.5905 20.072ZM78.4416 20.028C78.6117 20.0277 78.5477 20.0584 78.3858 19.9731C78.3011 19.9285 78.2118 19.8633 78.131 19.7774C78.0517 19.693 78.0007 19.61 77.9702 19.5471C77.9555 19.5167 77.9461 19.4924 77.9406 19.4762C77.9351 19.4602 77.9329 19.4511 77.9329 19.4509C77.9328 19.4507 77.9344 19.4573 77.9367 19.4723C77.939 19.4872 77.9418 19.5084 77.9445 19.5369C77.9501 19.596 77.9543 19.6727 77.9565 19.7761C77.9588 19.8812 77.9588 19.9928 77.9586 20.1322L81.9586 20.1359C81.9589 19.8866 81.9609 19.5202 81.9266 19.1592C81.8923 18.7974 81.8115 18.3009 81.569 17.8011C81.306 17.259 80.8765 16.7642 80.2501 16.4342C79.6601 16.1234 79.025 16.0269 78.4337 16.028L78.4416 20.028ZM77.9586 20.1326C77.9536 27.0325 77.9176 33.965 77.9988 40.8925L81.9985 40.8456C81.9177 33.951 81.9536 27.0596 81.9586 20.1355L77.9586 20.1326Z" fill="#F2F2F2" mask="url(#path-1-inside-1_220_1104)"/>
</g>
<defs>
<clipPath id="clip0_220_1104">
<rect width="98" height="98" fill="white"/>
</clipPath>
</defs>
</svg>
