<svg width="98" height="98" viewBox="0 0 98 98" fill="none" xmlns="http://www.w3.org/2000/svg">
<path d="M19.089 57.2461L19.089 57.2462C19.0136 62.761 19.0284 68.2762 19.0434 73.8007C19.0466 74.997 19.0498 76.1937 19.0521 77.391L19.089 57.2461ZM19.089 57.2461C19.0953 56.7769 19.1796 56.1461 19.3318 55.6226C19.408 55.3603 19.49 55.1648 19.5628 55.0412C19.5739 55.0223 19.5837 55.007 19.5919 54.9947C19.7756 54.9534 20.0911 54.9636 20.5922 55.0948C21.0179 55.2063 21.4461 55.3657 21.9002 55.5348C22.0469 55.5894 22.1962 55.645 22.349 55.7003C22.9911 55.9327 23.6078 56.2326 24.2777 56.5583C24.4348 56.6346 24.5948 56.7124 24.7587 56.7911C25.5917 57.1908 26.5081 57.6031 27.4969 57.8296C29.4869 58.2857 31.2288 57.9405 32.6774 57.0571C34.1002 56.1894 35.1828 54.8395 35.9735 53.3607C37.6092 50.3036 37.6279 46.7104 35.4762 43.7286C34.4407 42.2934 33.1442 41.1341 31.5875 40.4832C30.0163 39.8262 28.2468 39.7161 26.3403 40.2787L26.3401 40.2788M19.089 57.2461L26.3401 40.2788M26.3401 40.2788C25.6306 40.4884 24.9863 40.8219 24.41 41.152C24.1628 41.2936 23.9409 41.4264 23.7286 41.5535C23.4073 41.7458 23.1078 41.9251 22.7748 42.1024L22.7743 42.1027M26.3401 40.2788L22.7743 42.1027M22.7743 42.1027C22.5395 42.2279 22.2874 42.3763 22.0604 42.5101C21.9479 42.5764 21.8416 42.639 21.7465 42.6934C21.4284 42.8755 21.1518 43.0174 20.8811 43.113L20.8808 43.1131M22.7743 42.1027L20.8808 43.1131M20.8808 43.1131C19.9478 43.4427 19.5853 43.3028 19.4652 43.213C19.3245 43.1078 19.0639 42.7454 19.0551 41.6623L19.0551 41.6621M20.8808 43.1131L19.0551 41.6621M19.0551 41.6621C19.0245 37.9631 19.0341 34.2668 19.0438 30.564C19.048 28.9556 19.0522 27.3459 19.0531 25.7342V25.7342M19.0551 41.6621L19.0531 25.7342M19.0531 25.7342C19.0534 25.2664 19.0549 24.7963 19.0564 24.3247C19.0611 22.8772 19.0658 21.4148 19.0339 19.9576L19.0339 19.9573M19.0531 25.7342L19.0339 19.9573M19.0339 19.9573C19.0209 19.3733 19.1371 19.2039 19.1735 19.1646M19.0339 19.9573L19.1735 19.1646M43.0442 34.7129L43.0441 34.7128C39.7442 31.8073 39.2492 27.0561 41.7091 23.3253L43.0442 34.7129ZM43.0442 34.7129C44.7131 36.1818 46.9677 36.864 49.1775 36.8366M43.0442 34.7129L49.1775 36.8366M54.953 20.3468L54.9531 20.347C55.2525 21.3068 55.8224 22.2119 56.4619 23.2276C56.512 23.3071 56.5625 23.3874 56.6134 23.4684L54.953 20.3468ZM54.953 20.3468C54.7547 19.7118 54.8704 19.4368 54.9359 19.3459C54.9995 19.2577 55.2144 19.0681 55.8549 19.0634L55.855 19.0634M54.953 20.3468L55.855 19.0634M55.855 19.0634C60.9291 19.0259 66.0004 19.0262 71.076 19.0265C73.5554 19.0266 76.0358 19.0268 78.5181 19.0225L78.5183 19.0225M55.855 19.0634L78.5183 19.0225M78.5183 19.0225C78.8133 19.0219 78.9449 19.0711 78.9892 19.0936C79.0155 19.1071 79.0242 19.1149 79.0405 19.1466C79.0672 19.1985 79.1025 19.3044 79.1245 19.5069C79.1464 19.7089 79.1495 19.9443 79.1488 20.2417C79.1464 21.197 79.1436 22.1525 79.1407 23.1083C79.1236 28.936 79.1065 34.7735 79.1838 40.6093M78.5183 19.0225L80.8654 44.8554M80.8654 44.8554L80.8652 44.8554C80.3251 44.6764 80.0255 44.2198 79.873 43.934C79.6979 43.6059 79.5709 43.2225 79.4774 42.8555C79.2892 42.1166 79.1922 41.2633 79.1838 40.6093M80.8654 44.8554C81.6369 45.1109 82.5136 45.0363 83.2627 44.8524C84.0307 44.6639 84.7973 44.3282 85.404 43.9191L85.4049 43.9185M80.8654 44.8554L85.4049 43.9185M79.1838 40.6093L80.1837 40.5965L79.1838 40.6097C79.1838 40.6096 79.1838 40.6095 79.1838 40.6093ZM85.4049 43.9185C87.825 42.2831 90.023 41.5124 92.6076 42.4317L92.6078 42.4318M85.4049 43.9185L92.6078 42.4318M92.6078 42.4318C95.0414 43.2969 96.3789 45.002 96.8001 47.5506L92.6078 42.4318ZM79.1418 77.2744V77.2742C79.1415 75.433 79.1403 73.5913 79.139 71.7493C79.1356 66.6152 79.1321 61.4787 79.1498 56.343C79.1542 55.064 79.4915 53.8396 80.493 53.1865C81.499 52.5305 82.755 52.7234 83.9279 53.2533C83.9279 53.2533 83.928 53.2533 83.9281 53.2533L83.5163 54.1646L79.1418 77.2744ZM79.1418 77.2744C79.142 77.9692 79.1405 78.4075 79.1064 78.7181C79.0971 78.803 79.0865 78.863 79.0775 78.904C79.0395 78.9123 78.985 78.9219 78.9096 78.9305C78.6078 78.9652 78.1796 78.9673 77.4945 78.9673H77.4944M79.1418 77.2744L77.4944 78.9673M77.4944 78.9673C71.1762 78.968 64.8581 78.9678 58.5399 78.9675C55.3808 78.9674 52.2217 78.9673 49.0625 78.9673H48.0625M77.4944 78.9673H48.0625M48.0625 78.9673V78.9733M48.0625 78.9673V78.9733M48.0625 78.9733C46.0259 78.9733 43.9894 78.9734 41.953 78.9734C34.8439 78.9736 27.7352 78.9738 20.6259 78.9723L48.0625 78.9733ZM19.2843 78.9331C19.57 78.9678 19.9768 78.9721 20.6257 78.9723L19.2843 78.9331ZM19.2843 78.9331C19.2116 78.9243 19.1593 78.9147 19.1229 78.9065M19.2843 78.9331L19.1229 78.9065M19.1229 78.9065C19.1144 78.8697 19.1044 78.8166 19.0951 78.7426C19.0592 78.4555 19.0534 78.0448 19.0521 77.391L19.1229 78.9065ZM19.1735 19.1646C19.1976 19.1386 19.3411 19.0026 19.9422 19.0055L19.1735 19.1646ZM43.3081 19.3944C43.2321 19.2842 42.9466 19.0399 42.0389 19.0355L43.3081 19.3944ZM43.3081 19.3944C43.3819 19.5014 43.5081 19.8464 43.1865 20.6806M43.3081 19.3944L43.1865 20.6806M43.1865 20.6806C42.8445 21.5675 42.3068 22.4182 41.7093 23.325L43.1865 20.6806ZM49.1775 36.8366C51.3885 36.8093 53.6491 36.0711 55.3426 34.5761L49.1775 36.8366ZM19.6239 54.9533C19.6239 54.9533 19.6229 54.9544 19.621 54.9562C19.6229 54.9541 19.6239 54.9532 19.6239 54.9533ZM19.9423 19.0055C23.6282 19.024 27.3135 19.0228 30.9958 19.0213L31.1363 19.0212C34.7726 19.0197 38.4059 19.0182 42.0388 19.0355L19.9423 19.0055Z" stroke="#F2F2F2" stroke-width="2"/>
</svg>
