<svg width="99" height="99" viewBox="0 0 99 99" fill="none" xmlns="http://www.w3.org/2000/svg">
<g clip-path="url(#clip0_228_6314)">
<mask id="path-1-inside-1_228_6314" fill="white">
<path d="M49.7926 80.7144C40.1796 80.7144 30.5666 80.6704 20.9546 80.7524C19.1216 80.7684 18.6536 80.0714 18.6666 78.4034C18.7206 71.4474 18.6996 64.4904 18.6896 57.5344C18.6856 54.6534 20.0426 53.7874 22.5966 55.1304C23.5006 55.6054 24.3066 56.2624 25.1896 56.7794C28.2996 58.6014 32.4096 57.8544 34.7736 55.0624C37.1966 52.2004 37.1516 47.1964 34.6766 44.3944C32.2556 41.6544 28.2046 41.0694 25.0716 42.9834C23.9806 43.6494 22.9096 44.3954 21.7316 44.8584C19.9356 45.5634 18.7736 44.8264 18.7546 42.8974C18.6796 35.4014 18.7146 27.9044 18.6876 20.4084C18.6816 18.8184 19.6786 18.7664 20.8776 18.7714C27.8666 18.7964 34.8546 18.7874 41.8436 18.7824C44.9996 18.7804 45.7826 17.4814 44.2916 14.7164C44.0186 14.2104 43.6826 13.7384 43.3636 13.2594C41.3176 10.1784 41.2636 6.60039 43.2266 3.93939C45.1626 1.31338 48.9796 0.206384 52.4136 1.27338C57.3096 2.79539 59.3066 8.50439 56.4606 12.8144C55.9336 13.6124 55.3606 14.4034 54.9816 15.2724C53.9736 17.5824 54.6816 18.7374 57.1876 18.7724C61.5456 18.8334 65.9056 18.7924 70.2646 18.7914C73.1506 18.7914 76.0376 18.8354 78.9206 18.7634C80.3536 18.7284 80.8436 19.3184 80.8366 20.6964C80.8026 28.0014 80.8406 35.3064 80.8046 42.6114C80.7936 44.8504 79.6446 45.5814 77.5186 44.7464C76.6966 44.4234 75.9336 43.9184 75.1936 43.4224C71.6066 41.0184 67.4806 41.4154 64.7776 44.4534C62.3396 47.1934 62.3536 52.2874 64.8066 55.1224C67.4116 58.1324 71.4896 58.5874 75.0326 56.2884C75.8356 55.7674 76.6446 55.2134 77.5276 54.8684C79.6176 54.0524 80.7696 54.8264 80.8126 57.0704C80.8656 59.8244 80.8216 62.5814 80.8216 65.3364C80.8216 69.6944 80.7656 74.0524 80.8506 78.4084C80.8856 80.1894 80.3736 80.8854 78.4496 80.8664"/>
</mask>
<path d="M20.9546 80.7524L20.9205 76.7526L20.9197 76.7526L20.9546 80.7524ZM18.6666 78.4034L22.6665 78.4346L22.6665 78.4345L18.6666 78.4034ZM18.6896 57.5344L14.6896 57.54L14.6896 57.5402L18.6896 57.5344ZM22.5966 55.1304L20.735 58.6708L20.7361 58.6714L22.5966 55.1304ZM25.1896 56.7794L27.2116 53.3281L27.2107 53.3276L25.1896 56.7794ZM34.7736 55.0624L37.8264 57.6472L37.8265 57.647L34.7736 55.0624ZM34.6766 44.3944L37.6746 41.7463L37.6742 41.7459L34.6766 44.3944ZM25.0716 42.9834L27.1558 46.3975L27.157 46.3968L25.0716 42.9834ZM21.7316 44.8584L23.1932 48.5818L23.1948 48.5812L21.7316 44.8584ZM18.7546 42.8974L22.7544 42.858L22.7544 42.8574L18.7546 42.8974ZM18.6876 20.4084L22.6876 20.394L22.6876 20.3933L18.6876 20.4084ZM20.8776 18.7714L20.861 22.7714L20.8633 22.7714L20.8776 18.7714ZM41.8436 18.7824L41.8411 14.7824L41.8408 14.7824L41.8436 18.7824ZM44.2916 14.7164L47.8124 12.8179L47.812 12.8171L44.2916 14.7164ZM43.3636 13.2594L40.0314 15.4722L40.0344 15.4766L43.3636 13.2594ZM43.2266 3.93939L46.4456 6.31396L46.4462 6.31302L43.2266 3.93939ZM52.4136 1.27338L53.6011 -2.54631L53.6005 -2.54647L52.4136 1.27338ZM56.4606 12.8144L59.7985 15.0187L59.7986 15.0185L56.4606 12.8144ZM54.9816 15.2724L58.6478 16.8722L58.6481 16.8715L54.9816 15.2724ZM57.1876 18.7724L57.2436 14.7728L57.2435 14.7728L57.1876 18.7724ZM70.2646 18.7914L70.2646 14.7914L70.2637 14.7914L70.2646 18.7914ZM78.9206 18.7634L78.823 14.7646L78.8208 14.7646L78.9206 18.7634ZM80.8366 20.6964L76.8367 20.6761L76.8367 20.6778L80.8366 20.6964ZM80.8046 42.6114L76.8047 42.5917L76.8047 42.5918L80.8046 42.6114ZM77.5186 44.7464L76.0557 48.4693L76.0564 48.4696L77.5186 44.7464ZM75.1936 43.4224L77.4207 40.0998L77.4206 40.0996L75.1936 43.4224ZM64.7776 44.4534L67.766 47.1124L67.766 47.1123L64.7776 44.4534ZM64.8066 55.1224L61.7818 57.7397L61.7821 57.74L64.8066 55.1224ZM75.0326 56.2884L72.8555 52.9328L72.8553 52.9329L75.0326 56.2884ZM77.5276 54.8684L76.0729 51.1423L76.0719 51.1427L77.5276 54.8684ZM80.8126 57.0704L76.8134 57.1471L76.8134 57.1474L80.8126 57.0704ZM80.8506 78.4084L76.8514 78.4865L76.8514 78.487L80.8506 78.4084ZM49.7926 76.7144C40.2041 76.7144 30.5553 76.6704 20.9205 76.7526L20.9888 84.7523C30.578 84.6705 40.1552 84.7144 49.7926 84.7144V76.7144ZM20.9197 76.7526C20.683 76.7547 20.7413 76.7273 20.9565 76.791C21.2208 76.8691 21.6746 77.0727 22.0845 77.5257C22.4796 77.9625 22.6142 78.389 22.654 78.558C22.6867 78.6965 22.6645 78.6961 22.6665 78.4346L14.6668 78.3723C14.6593 79.3264 14.715 81.3046 16.1523 82.8931C17.6862 84.5885 19.7666 84.763 20.9896 84.7523L20.9197 76.7526ZM22.6665 78.4345C22.7207 71.4553 22.6996 64.4749 22.6896 57.5287L14.6896 57.5402C14.6997 64.5059 14.7206 71.4396 14.6668 78.3724L22.6665 78.4345ZM22.6896 57.5289C22.689 57.0838 22.7465 56.9874 22.7053 57.1025C22.6524 57.2502 22.4229 57.7559 21.7946 58.1462C21.1588 58.5412 20.5856 58.5258 20.397 58.5015C20.2514 58.4828 20.3464 58.4665 20.735 58.6708L24.4583 51.5901C22.9412 50.7923 20.1663 49.7398 17.5732 51.3506C15.0204 52.9364 14.6873 55.8508 14.6896 57.54L22.6896 57.5289ZM20.7361 58.6714C20.9703 58.7945 21.235 58.9641 21.6553 59.2493C22.0217 59.4979 22.5824 59.8881 23.1686 60.2313L27.2107 53.3276C26.9139 53.1538 26.6301 52.957 26.1467 52.6291C25.7173 52.3377 25.1269 51.9414 24.4572 51.5895L20.7361 58.6714ZM23.1677 60.2307C28.0083 63.0666 34.2464 61.8753 37.8264 57.6472L31.7209 52.4777C30.5729 53.8336 28.591 54.1362 27.2116 53.3281L23.1677 60.2307ZM37.8265 57.647C39.7707 55.3506 40.5864 52.3967 40.5617 49.6697C40.537 46.9434 39.668 44.0032 37.6746 41.7463L31.6787 47.0425C32.1603 47.5877 32.5513 48.5505 32.5621 49.7422C32.5728 50.9331 32.1996 51.9123 31.7208 52.4778L37.8265 57.647ZM37.6742 41.7459C33.9492 37.53 27.7497 36.6599 22.9863 39.57L27.157 46.3968C28.6595 45.4789 30.5621 45.7788 31.6791 47.043L37.6742 41.7459ZM22.9875 39.5693C21.6053 40.413 21.0187 40.8408 20.2684 41.1356L23.1948 48.5812C24.8006 47.9501 26.356 46.8858 27.1558 46.3975L22.9875 39.5693ZM20.2701 41.135C19.9541 41.259 20.7356 40.8462 21.7611 41.5147C22.8249 42.2082 22.7573 43.1476 22.7544 42.858L14.7548 42.9368C14.771 44.5762 15.2938 46.8486 17.3925 48.2166C19.4527 49.5596 21.7132 49.1628 23.1932 48.5818L20.2701 41.135ZM22.7544 42.8574C22.6796 35.3731 22.7148 27.9395 22.6876 20.394L14.6877 20.4228C14.7145 27.8693 14.6797 35.4297 14.7548 42.9374L22.7544 42.8574ZM22.6876 20.3933C22.6876 20.399 22.6879 20.4834 22.6612 20.6243C22.6341 20.7681 22.5765 20.9832 22.4541 21.2342C22.1747 21.8072 21.7122 22.2567 21.2039 22.5261C20.9823 22.6435 20.7942 22.7046 20.6742 22.7362C20.556 22.7673 20.48 22.776 20.4691 22.7772C20.4578 22.7784 20.4796 22.7756 20.5531 22.7735C20.6274 22.7713 20.721 22.7708 20.861 22.7714L20.8943 14.7714C20.5446 14.77 18.9073 14.6892 17.4577 15.4574C16.551 15.9379 15.7654 16.6982 15.2633 17.7281C14.7995 18.6794 14.6847 19.6393 14.6877 20.4235L22.6876 20.3933ZM20.8633 22.7714C27.863 22.7964 34.8613 22.7874 41.8465 22.7824L41.8408 14.7824C34.848 14.7874 27.8703 14.7964 20.892 14.7714L20.8633 22.7714ZM41.8462 22.7824C42.8616 22.7818 43.9774 22.6827 45.0365 22.3284C46.1266 21.9636 47.4003 21.2382 48.2369 19.8491C49.0755 18.4566 49.1195 16.9874 48.9252 15.8464C48.737 14.7414 48.2936 13.7103 47.8124 12.8179L40.7709 16.6149C41.0352 17.105 41.053 17.2731 41.0387 17.1894C41.0183 17.0697 40.9489 16.4438 41.3837 15.7219C41.8164 15.0035 42.3957 14.776 42.498 14.7418C42.5692 14.718 42.4037 14.782 41.8411 14.7824L41.8462 22.7824ZM47.812 12.8171C47.423 12.0961 46.917 11.3787 46.6929 11.0422L40.0344 15.4766C40.4483 16.0981 40.6143 16.3247 40.7713 16.6157L47.812 12.8171ZM46.6958 11.0466C45.4339 9.14629 45.6292 7.42063 46.4456 6.31396L40.0077 1.56482C36.8981 5.78015 37.2014 11.2105 40.0314 15.4722L46.6958 11.0466ZM46.4462 6.31302C47.2397 5.23681 49.1973 4.46266 51.2267 5.09324L53.6005 -2.54647C48.762 -4.04989 43.0856 -2.61004 40.007 1.56576L46.4462 6.31302ZM51.2262 5.09308C53.5285 5.80876 54.5296 8.4796 53.1227 10.6103L59.7986 15.0185C64.0836 8.52918 61.0908 -0.217992 53.6011 -2.54631L51.2262 5.09308ZM53.1228 10.6101C52.7372 11.194 51.8733 12.3937 51.3152 13.6733L58.6481 16.8715C58.848 16.4131 59.13 16.0308 59.7985 15.0187L53.1228 10.6101ZM51.3155 13.6726C50.7175 15.043 49.8854 17.616 51.3764 19.9979C52.8946 22.4232 55.6147 22.7508 57.1318 22.772L57.2435 14.7728C56.8819 14.7677 56.8612 14.7209 57.0335 14.7847C57.2476 14.864 57.7637 15.1242 58.1574 15.7531C58.5461 16.3741 58.5506 16.9321 58.5348 17.1218C58.5219 17.2762 58.498 17.2154 58.6478 16.8722L51.3155 13.6726ZM57.1317 22.772C61.5272 22.8335 65.9559 22.7924 70.2656 22.7914L70.2637 14.7914C65.8554 14.7924 61.5641 14.8333 57.2436 14.7728L57.1317 22.772ZM70.2646 22.7914C73.0689 22.7914 76.0713 22.8358 79.0205 22.7622L78.8208 14.7646C76.0039 14.835 73.2324 14.7914 70.2646 14.7914V22.7914ZM79.0183 22.7622C79.3226 22.7548 78.3865 22.8651 77.5239 21.9605C76.7236 21.1213 76.8387 20.2776 76.8367 20.6761L84.8366 20.7167C84.8416 19.7372 84.7152 17.9095 83.3134 16.4395C81.8493 14.9042 79.9517 14.737 78.823 14.7646L79.0183 22.7622ZM76.8367 20.6778C76.8196 24.3417 76.8206 28.0041 76.8214 31.6547C76.8221 35.3087 76.8226 38.9511 76.8047 42.5917L84.8046 42.6311C84.8226 38.9667 84.8221 35.3041 84.8214 31.6531C84.8206 27.9987 84.8196 24.3561 84.8366 20.715L76.8367 20.6778ZM76.8047 42.5918C76.8035 42.8427 76.7673 42.7917 76.8523 42.5707C76.9531 42.3086 77.2198 41.8366 77.7837 41.4721C78.3375 41.1142 78.846 41.0748 79.0641 41.0823C79.2506 41.0887 79.2419 41.1258 78.9809 41.0233L76.0564 48.4696C77.4762 49.0272 79.9053 49.6262 82.1258 48.1912C84.4097 46.7153 84.7969 44.1927 84.8046 42.6311L76.8047 42.5918ZM78.9815 41.0235C78.626 40.8838 78.2102 40.6289 77.4207 40.0998L72.9666 46.7451C73.6571 47.2079 74.7673 47.963 76.0557 48.4693L78.9815 41.0235ZM77.4206 40.0996C72.345 36.698 65.9536 37.1141 61.7892 41.7946L67.766 47.1123C69.0077 45.7168 70.8682 45.3388 72.9667 46.7452L77.4206 40.0996ZM61.7893 41.7945C59.7735 44.06 58.9506 47.0468 58.958 49.7632C58.9655 52.4859 59.8064 55.4568 61.7818 57.7397L67.8315 52.5051C67.3538 51.9531 66.9613 50.9594 66.958 49.7414C66.9547 48.517 67.3438 47.5869 67.766 47.1124L61.7893 41.7945ZM61.7821 57.74C65.8215 62.4076 72.161 62.9201 77.21 59.6439L72.8553 52.9329C70.8182 54.2548 69.0017 53.8573 67.8312 52.5048L61.7821 57.74ZM77.2098 59.644C78.1674 59.0227 78.5727 58.7546 78.9833 58.5941L76.0719 51.1427C74.7165 51.6723 73.5039 52.5122 72.8555 52.9328L77.2098 59.644ZM78.9824 58.5945C79.2166 58.5031 79.1991 58.5483 78.9874 58.552C78.7388 58.5564 78.2376 58.498 77.7096 58.1439C77.1821 57.7901 76.9389 57.3497 76.8495 57.1209C76.7733 56.9259 76.8085 56.8946 76.8134 57.1471L84.8119 56.9938C84.7818 55.4203 84.3609 52.9722 82.1659 51.5C79.9679 50.0257 77.5414 50.569 76.0729 51.1423L78.9824 58.5945ZM76.8134 57.1474C76.8654 59.8529 76.8216 62.4934 76.8216 65.3364H84.8216C84.8216 62.6694 84.8658 59.796 84.8119 56.9935L76.8134 57.1474ZM76.8216 65.3364C76.8216 69.6252 76.7654 74.0791 76.8514 78.4865L84.8499 78.3304C84.7659 74.0258 84.8216 69.7636 84.8216 65.3364H76.8216ZM76.8514 78.487C76.857 78.7706 76.8324 78.7803 76.8642 78.6429C76.904 78.4715 77.0408 78.0375 77.4463 77.5985C77.8622 77.1482 78.3131 76.96 78.5476 76.8933C78.7352 76.84 78.7619 76.8693 78.4891 76.8666L78.4101 84.8662C79.6298 84.8783 81.753 84.7266 83.3232 83.0264C84.8255 81.3998 84.8699 79.3485 84.8499 78.3298L76.8514 78.487Z" fill="#ECB731" mask="url(#path-1-inside-1_228_6314)"/>
</g>
<defs>
<clipPath id="clip0_228_6314">
<rect width="98" height="98" fill="white" transform="translate(0.666687 0.867432)"/>
</clipPath>
</defs>
</svg>
