<svg width="98" height="98" viewBox="0 0 98 98" fill="none" xmlns="http://www.w3.org/2000/svg">
<path d="M47.9676 78.8365H48.9676C51.3589 78.8365 53.7508 78.8349 56.1431 78.8332C63.4101 78.8282 70.6807 78.8232 77.9497 78.8645H77.9499C78.6428 78.8686 78.7984 78.7339 78.8206 78.7115C78.8449 78.6869 78.9716 78.5324 78.968 77.861C78.9493 74.3985 78.9526 70.9362 78.9559 67.4775L78.9561 67.3017C78.9595 63.7835 78.9625 60.2689 78.942 56.7549C78.9329 55.2083 78.5264 54.7446 78.3109 54.6347C78.0719 54.5129 77.4037 54.466 76.0488 55.3382C75.9349 55.4116 75.82 55.4862 75.704 55.5614C73.9055 56.7287 71.845 58.0659 69.0925 57.8077C65.5852 57.4785 62.567 55.2685 61.5403 51.9031L61.5403 51.9031C60.3396 47.9664 61.5275 43.7677 64.6629 41.4943C67.457 39.4679 71.4786 39.4848 74.4509 41.4003L74.4509 41.4004C74.615 41.5061 74.7744 41.6103 74.9304 41.7122C75.7463 42.2455 76.4662 42.7159 77.2492 43.0164C77.9917 43.3012 78.3732 43.1997 78.5261 43.103C78.6597 43.0185 78.8965 42.7587 78.9041 42.0001C78.9643 35.9386 78.9528 29.8766 78.9414 23.808C78.9386 22.3309 78.9358 20.8535 78.934 19.3755L47.9676 78.8365ZM47.9676 78.8365V78.8455M47.9676 78.8365V78.8455M47.9676 78.8455H20.9332C20.1477 78.8455 19.6439 78.844 19.2846 78.8037C19.1208 78.7854 19.0309 78.7626 18.9867 78.7482C18.9721 78.7034 18.9487 78.6113 18.93 78.4422C18.8899 78.0793 18.8883 77.5708 18.8883 76.7807C18.8883 74.8697 18.8892 72.9581 18.8901 71.0463C18.8923 66.1783 18.8945 61.3083 18.8823 56.4389L18.8823 56.4388C18.8786 55.0335 18.5426 53.6897 17.4533 53.0171C16.366 52.3456 15.0118 52.6425 13.7469 53.2643M47.9676 78.8455L14.1881 54.1617M17.8903 20.568C17.8895 22.3758 17.8916 24.1835 17.8936 25.9913C17.8992 30.9625 17.9048 35.9334 17.8514 40.9033C17.8404 41.8992 17.5467 43.5396 16.9822 43.7374C16.0242 44.073 14.5887 43.7793 13.6367 43.2459C13.3262 43.0718 13.0205 42.892 12.7162 42.713C11.0506 41.7332 9.4271 40.7782 7.29513 40.9302C4.03146 41.163 1.49305 43.0121 0.462103 46.1779C-0.621791 49.5025 0.489075 53.3625 3.1064 55.3715M17.8903 20.568L18.8903 20.5688M17.8903 20.568L18.8903 20.5684C18.8903 20.5685 18.8903 20.5687 18.8903 20.5688M17.8903 20.568L18.8903 20.5688M18.8903 20.5688C18.8895 22.3729 18.8916 24.1784 18.8936 25.9848C18.8992 30.9579 18.9048 35.9377 18.8513 40.914L18.8513 40.9143C18.845 41.4856 18.7598 42.2261 18.5922 42.8712C18.5089 43.1917 18.3942 43.5323 18.2334 43.8284C18.0924 44.088 17.8141 44.5055 17.313 44.6811L17.3129 44.6811C16.6202 44.9238 15.838 44.9181 15.1451 44.8043C14.441 44.6887 13.7323 44.4457 13.1478 44.1182L13.1476 44.1181C12.7999 43.9232 12.4702 43.7306 12.1528 43.5452C10.4889 42.5732 9.16437 41.7995 7.36627 41.9277C4.48342 42.1333 2.31031 43.732 1.41295 46.4875L1.41285 46.4878C0.449895 49.4415 1.46024 52.8473 3.7152 54.5782M18.8903 20.5688C18.8908 19.8911 18.8945 19.4674 18.9306 19.1697C18.9404 19.0892 18.9511 19.0328 18.9601 18.9948C19.0023 18.9847 19.0678 18.9721 19.1646 18.9611C19.4767 18.9255 19.9178 18.9222 20.6121 18.9217L18.8903 20.5688ZM3.7152 54.5782L3.1064 55.3715M3.7152 54.5782C3.71523 54.5782 3.71526 54.5782 3.71528 54.5782L3.1064 55.3715M3.7152 54.5782C5.80273 56.1801 9.06322 56.2806 11.3801 54.7654M3.1064 55.3715C5.54592 57.2436 9.27111 57.3395 11.9274 55.6023M11.9274 55.6023L11.3799 54.7654C11.38 54.7654 11.38 54.7654 11.3801 54.7654M11.9274 55.6023C12.1461 55.4592 12.362 55.3101 12.578 55.161C13.1008 54.8 13.6239 54.4389 14.1881 54.1617M11.9274 55.6023L11.3801 54.7654M11.3801 54.7654C11.5551 54.6508 11.7444 54.5201 11.9446 54.382C12.4882 54.0068 13.1117 53.5764 13.7469 53.2643M14.1881 54.1617L13.7469 53.2643M14.1881 54.1617L13.7472 53.2642C13.7471 53.2642 13.747 53.2643 13.7469 53.2643M53.0632 17.1395L53.0631 17.1394C52.694 16.3473 52.8372 15.3944 53.0406 14.6791C53.2594 13.9097 53.6293 13.1361 54.0169 12.5439L54.0172 12.5435C55.4051 10.4255 56.2408 8.60377 55.7501 6.32743L55.7501 6.32737C55.449 4.93 54.8508 3.81676 53.9944 2.98045C53.1374 2.14346 51.9727 1.53583 50.4632 1.22978L50.4631 1.22976C47.3908 0.606571 44.5648 1.73189 42.9302 4.15116L42.9302 4.1512C41.5815 6.14701 41.5929 9.22783 43.0126 11.3826L43.0126 11.3827C43.1266 11.5557 43.2546 11.7408 43.3894 11.9357C43.803 12.5337 44.2803 13.2238 44.6117 13.9407L44.6118 13.941C45.1668 15.1423 45.4112 16.4272 44.7778 17.4677C44.1387 18.5178 42.8818 18.8711 41.5606 18.8965L53.0632 17.1395ZM53.0632 17.1395C53.276 17.5961 53.6592 17.8932 53.9859 18.0833C54.3274 18.2821 54.7185 18.4283 55.0985 18.5368C55.8589 18.7538 56.7193 18.8599 57.4012 18.8706C62.8022 18.9557 68.2067 18.9428 73.6004 18.93C74.9908 18.9266 76.3805 18.9233 77.7691 18.9217M53.0632 17.1395L77.7691 18.9217M77.7691 18.9217C77.8094 18.9217 77.8483 18.9216 77.886 18.9215M77.7691 18.9217L77.886 18.9215M77.886 18.9215C78.1198 18.9209 78.3084 18.9205 78.4867 18.9333M77.886 18.9215L78.4867 18.9333M78.4867 18.9333C78.6917 18.9479 78.8022 18.9764 78.8583 19.0004M78.4867 18.9333L78.8583 19.0004M78.8583 19.0004C78.8692 19.0051 78.8761 19.0088 78.88 19.0111M78.8583 19.0004L78.88 19.0111M78.88 19.0111C78.8843 19.0137 78.8849 19.0145 78.8832 19.0131C78.881 19.0112 78.8794 19.0094 78.8787 19.0085C78.8779 19.0076 78.878 19.0076 78.8792 19.0097C78.8794 19.01 78.8797 19.0105 78.88 19.0111ZM78.88 19.0111C78.8886 19.0268 78.9337 19.1216 78.934 19.3754L78.88 19.0111ZM34.2763 18.9271C33.3032 18.9237 32.3323 18.9204 31.3648 18.9207C29.8279 18.9211 28.2918 18.921 26.7558 18.9209C24.708 18.9207 22.6606 18.9206 20.6123 18.9217L34.2763 18.9271ZM34.2763 18.9271C36.6976 18.9354 39.1322 18.9437 41.5604 18.8965L34.2763 18.9271ZM47.9676 79.8365C47.9676 79.8473 47.9672 79.8402 47.9676 79.8219V79.8365Z" stroke="#F2F2F2" stroke-width="2"/>
</svg>
