<?xml version="1.0" encoding="utf-8"?>
<!-- Generator: Adobe Illustrator 26.0.3, SVG Export Plug-In . SVG Version: 6.00 Build 0)  -->
<svg version="1.1" id="Layer_1" xmlns="http://www.w3.org/2000/svg" xmlns:xlink="http://www.w3.org/1999/xlink" x="0px" y="0px"
	 viewBox="0 0 226.77 340.16" style="enable-background:new 0 0 226.77 340.16;" xml:space="preserve">
<style type="text/css">
	.st0{fill:#EDEDED;}
</style>
<g>
	<g>
		<path class="st0" d="M61.3,155.95h5.42c1.14,0,2.02,0.29,2.64,0.87s0.92,1.3,0.92,2.15c0,0.84-0.29,1.55-0.87,2.13
			s-1.28,0.88-2.1,0.88c-0.68,0-1.37-0.26-2.04-0.78v3.69H61.3V155.95z M65.26,157.88v1.95c0.12,0.03,0.23,0.05,0.33,0.05
			c0.3,0,0.54-0.09,0.72-0.28s0.28-0.43,0.28-0.74c0-0.3-0.08-0.54-0.23-0.71s-0.38-0.26-0.67-0.26L65.26,157.88L65.26,157.88z"/>
		<path class="st0" d="M71.27,155.95h5.84c1.01,0,1.81,0.25,2.38,0.76s0.87,1.15,0.87,1.91c0,0.84-0.34,1.5-1.02,1.98
			c0.96,1.1,1.54,2.53,1.73,4.28h-4.11c-0.07-1.13-0.24-1.96-0.51-2.5s-0.67-0.81-1.23-0.81v3.31h-3.96L71.27,155.95L71.27,155.95z
			 M75.23,157.79v1.72h0.11c0.71,0,1.07-0.28,1.07-0.84c0-0.23-0.07-0.44-0.22-0.62s-0.38-0.27-0.72-0.27L75.23,157.79L75.23,157.79
			z"/>
		<path class="st0" d="M89.45,162.65v2.24h-7.42v-8.94h7.42v2.24h-3.47v1.11h2.41v2.24h-2.41v1.1L89.45,162.65L89.45,162.65z"/>
		<path class="st0" d="M98.16,156.41l-0.98,2.82c-0.64-0.87-1.38-1.31-2.22-1.31c-0.46,0-0.7,0.18-0.7,0.53
			c0,0.11,0.07,0.22,0.22,0.33s0.53,0.29,1.15,0.53c0.68,0.27,1.21,0.51,1.58,0.74s0.65,0.5,0.83,0.85s0.28,0.74,0.28,1.2
			c0,0.96-0.36,1.69-1.09,2.19s-1.79,0.75-3.21,0.75c-1.58,0-2.95-0.22-4.09-0.67l0.97-2.99c0.28,0.44,0.63,0.79,1.05,1.04
			s0.82,0.39,1.2,0.39c0.19,0,0.34-0.05,0.47-0.15s0.19-0.22,0.19-0.36c0-0.13-0.06-0.26-0.18-0.38s-0.45-0.29-0.98-0.5
			c-0.48-0.19-0.87-0.38-1.18-0.56s-0.58-0.44-0.81-0.78s-0.35-0.76-0.35-1.27c0-0.99,0.36-1.74,1.08-2.24s1.79-0.76,3.2-0.76
			C95.87,155.81,97.06,156.01,98.16,156.41z"/>
		<path class="st0" d="M108.16,155.95V160c0,1.77-0.45,3.05-1.36,3.84s-1.94,1.19-3.1,1.19c-0.84,0-1.64-0.22-2.39-0.66
			s-1.29-1.01-1.59-1.73s-0.46-1.66-0.46-2.82v-3.88h3.96v4.14c0,0.45,0.04,0.73,0.12,0.84s0.2,0.18,0.35,0.18
			c0.22,0,0.36-0.11,0.42-0.32s0.09-0.57,0.09-1.08v-3.77h3.96V155.95z"/>
		<path class="st0" d="M109.81,155.95h5.42c1.14,0,2.02,0.29,2.64,0.87s0.92,1.3,0.92,2.15c0,0.84-0.29,1.55-0.87,2.13
			s-1.28,0.88-2.1,0.88c-0.68,0-1.37-0.26-2.04-0.78v3.69h-3.96L109.81,155.95L109.81,155.95z M113.77,157.88v1.95
			c0.12,0.03,0.23,0.05,0.33,0.05c0.3,0,0.54-0.09,0.72-0.28s0.28-0.43,0.28-0.74c0-0.3-0.08-0.54-0.23-0.71s-0.38-0.26-0.67-0.26
			L113.77,157.88L113.77,157.88z"/>
		<path class="st0" d="M128.54,155.95V160c0,1.77-0.45,3.05-1.36,3.84s-1.94,1.19-3.1,1.19c-0.84,0-1.64-0.22-2.39-0.66
			s-1.29-1.01-1.59-1.73s-0.46-1.66-0.46-2.82v-3.88h3.96v4.14c0,0.45,0.04,0.73,0.12,0.84s0.2,0.18,0.35,0.18
			c0.22,0,0.36-0.11,0.42-0.32s0.09-0.57,0.09-1.08v-3.77h3.96V155.95z"/>
		<path class="st0" d="M137.59,162.65v2.24h-7.42v-8.94h7.42v2.24h-3.47v1.11h2.41v2.24h-2.41v1.1L137.59,162.65L137.59,162.65z"/>
		<path class="st0" d="M146.3,156.41l-0.98,2.82c-0.64-0.87-1.38-1.31-2.22-1.31c-0.46,0-0.7,0.18-0.7,0.53
			c0,0.11,0.07,0.22,0.22,0.33s0.53,0.29,1.15,0.53c0.68,0.27,1.21,0.51,1.58,0.74s0.65,0.5,0.83,0.85s0.28,0.74,0.28,1.2
			c0,0.96-0.36,1.69-1.09,2.19s-1.79,0.75-3.21,0.75c-1.58,0-2.95-0.22-4.09-0.67l0.97-2.99c0.28,0.44,0.63,0.79,1.05,1.04
			s0.82,0.39,1.2,0.39c0.19,0,0.34-0.05,0.47-0.15s0.19-0.22,0.19-0.36c0-0.13-0.06-0.26-0.18-0.38s-0.45-0.29-0.98-0.5
			c-0.48-0.19-0.87-0.38-1.18-0.56s-0.58-0.44-0.81-0.78s-0.35-0.76-0.35-1.27c0-0.99,0.36-1.74,1.08-2.24s1.79-0.76,3.2-0.76
			C144.01,155.81,145.2,156.01,146.3,156.41z"/>
		<path class="st0" d="M146.88,159.91v-3.96h7.95v3.96h-1.99v4.98h-3.96v-4.98H146.88z"/>
		<path class="st0" d="M159.99,165.04c-1.28,0-2.36-0.45-3.25-1.34s-1.33-1.99-1.33-3.28s0.44-2.37,1.33-3.27s1.97-1.34,3.25-1.34
			s2.37,0.45,3.25,1.34s1.33,1.98,1.33,3.27c0,1.29-0.44,2.38-1.33,3.28S161.27,165.04,159.99,165.04z M159.99,159.24
			c-0.25,0-0.46,0.09-0.63,0.27s-0.25,0.4-0.25,0.67s0.08,0.49,0.25,0.67s0.38,0.27,0.63,0.27c0.26,0,0.47-0.09,0.64-0.27
			s0.25-0.4,0.25-0.67s-0.08-0.49-0.25-0.67S160.24,159.24,159.99,159.24z"/>
		<path class="st0" d="M61.3,165.95h5.42c1.14,0,2.02,0.29,2.64,0.87s0.92,1.3,0.92,2.15c0,0.84-0.29,1.55-0.87,2.13
			s-1.28,0.88-2.1,0.88c-0.68,0-1.37-0.26-2.04-0.78v3.69H61.3V165.95z M65.26,167.88v1.95c0.12,0.03,0.23,0.05,0.33,0.05
			c0.3,0,0.54-0.09,0.72-0.28s0.28-0.43,0.28-0.74c0-0.3-0.08-0.54-0.23-0.71s-0.38-0.26-0.67-0.26L65.26,167.88L65.26,167.88z"/>
		<path class="st0" d="M73.35,174.89h-3.96l3.11-8.94h5.64l3.11,8.94h-3.96l-0.52-1.51h-2.91L73.35,174.89z M74.58,171.27h1.46
			l-0.73-2.22L74.58,171.27z"/>
		<path class="st0" d="M82.14,165.95h5.84c1.01,0,1.81,0.25,2.38,0.76s0.87,1.15,0.87,1.91c0,0.84-0.34,1.5-1.02,1.98
			c0.96,1.1,1.54,2.53,1.73,4.28h-4.11c-0.07-1.13-0.24-1.96-0.51-2.5s-0.67-0.81-1.23-0.81v3.31h-3.96v-8.93H82.14z M86.09,167.79
			v1.72h0.11c0.71,0,1.07-0.28,1.07-0.84c0-0.23-0.07-0.44-0.22-0.62s-0.38-0.27-0.72-0.27L86.09,167.79L86.09,167.79z"/>
		<path class="st0" d="M92.05,169.91v-3.96H100v3.96h-2v4.98h-3.96v-4.98H92.05z"/>
		<path class="st0" d="M101.11,174.89v-8.94h3.96v8.94H101.11z"/>
		<path class="st0" d="M115.16,166.75l-1.66,3.16c-0.48-0.17-1.02-0.25-1.61-0.25c-0.84,0-1.26,0.23-1.26,0.69
			c0,0.22,0.12,0.39,0.35,0.51s0.57,0.18,1,0.18c0.59,0,1.09-0.11,1.51-0.32l1.66,3.39c-0.47,0.28-1.04,0.51-1.7,0.67
			s-1.3,0.25-1.9,0.25c-1.52,0-2.73-0.44-3.63-1.32s-1.35-1.96-1.35-3.24c0-1.36,0.47-2.47,1.41-3.35s2.13-1.32,3.57-1.32
			c0.62,0,1.27,0.08,1.94,0.25S114.72,166.46,115.16,166.75z"/>
		<path class="st0" d="M116.23,174.89v-8.94h3.96v8.94H116.23z"/>
		<path class="st0" d="M121.98,165.95h5.42c1.14,0,2.02,0.29,2.64,0.87s0.92,1.3,0.92,2.15c0,0.84-0.29,1.55-0.87,2.13
			s-1.28,0.88-2.1,0.88c-0.68,0-1.37-0.26-2.04-0.78v3.69h-3.96v-8.94H121.98z M125.93,167.88v1.95c0.12,0.03,0.23,0.05,0.33,0.05
			c0.3,0,0.54-0.09,0.72-0.28s0.28-0.43,0.28-0.74c0-0.3-0.08-0.54-0.23-0.71s-0.38-0.26-0.67-0.26L125.93,167.88L125.93,167.88z"/>
		<path class="st0" d="M134.02,174.89h-3.96l3.11-8.94h5.64l3.11,8.94h-3.96l-0.52-1.51h-2.91L134.02,174.89z M135.26,171.27h1.46
			l-0.73-2.22L135.26,171.27z"/>
		<path class="st0" d="M141.19,169.91v-3.96h7.95v3.96h-1.99v4.98h-3.96v-4.98H141.19z"/>
		<path class="st0" d="M150.25,174.89v-8.94h3.96v8.94H150.25z"/>
		<path class="st0" d="M165.12,165.95l-3.04,8.94h-3.84l-3.04-8.94h3.95l1.01,3.01l1.01-3.01H165.12z"/>
		<path class="st0" d="M169.75,175.04c-1.28,0-2.36-0.45-3.25-1.34s-1.33-1.99-1.33-3.28s0.44-2.37,1.33-3.27s1.97-1.34,3.25-1.34
			s2.37,0.45,3.25,1.34s1.33,1.98,1.33,3.27c0,1.29-0.44,2.38-1.33,3.28S171.03,175.04,169.75,175.04z M169.75,169.24
			c-0.25,0-0.46,0.09-0.63,0.27s-0.25,0.4-0.25,0.67s0.08,0.49,0.25,0.67s0.38,0.27,0.63,0.27c0.26,0,0.47-0.09,0.64-0.27
			s0.25-0.4,0.25-0.67s-0.08-0.49-0.25-0.67S170.01,169.24,169.75,169.24z"/>
		<path d="M61.3,184.89v-7.68h1.61l2.42,6.94l2.42-6.94h1.61v7.68H68.4v-6.67l-2.42,6.67h-1.3l-2.42-6.67v6.67H61.3z"/>
		<path d="M75.72,177.22v0.84h-2.45v6.84h-0.95v-6.84h-2.39v-0.84H75.72z"/>
		<path d="M76.55,177.22h1.18l2.1,3.77l2.18-3.77h1.07l-2.79,4.75v2.93h-0.96v-2.96L76.55,177.22z"/>
	</g>
</g>
<g>
	<path class="st0" d="M58.81,184.72h-5.63v-2.2c0-1.16,0.8-1.9,1.84-1.9c1,0,1.85,0.75,1.85,1.72v1.68h1.95L58.81,184.72
		L58.81,184.72z M55.01,181.32c-0.73,0-1.14,0.52-1.14,1.2v1.5h2.36v-1.5C56.23,181.84,55.74,181.32,55.01,181.32z"/>
	<path class="st0" d="M56.1,178.93h2.71v0.66h-5.64v-2.21c0-1.23,0.63-1.81,1.57-1.81c1.05,0,1.58,0.67,1.58,1.72v0.63l2.49-2.46
		v0.98L56.1,178.93z M55.78,178.93v-1.48c0-0.85-0.36-1.21-0.99-1.21s-1,0.37-1,1.21v1.48H55.78z"/>
	<path class="st0" d="M58.81,174.53h-5.63v-0.7h5.63V174.53z"/>
	<path class="st0" d="M58.81,172.49h-5.63v-1.18l5.1-1.78l-5.1-1.78v-1.18h5.63v0.7h-4.9l4.9,1.78V170l-4.9,1.78h4.9V172.49z"/>
	<path class="st0" d="M58.81,161.54v3.65h-5.63v-3.6h0.62v2.93h1.81v-2.67h0.68v2.67h1.91v-2.98L58.81,161.54L58.81,161.54z"/>
	<path class="st0" d="M56.1,159.69h2.71v0.66h-5.64v-2.21c0-1.23,0.63-1.81,1.57-1.81c1.05,0,1.58,0.67,1.58,1.72v0.63l2.49-2.46
		v0.98L56.1,159.69z M55.78,159.69v-1.48c0-0.85-0.36-1.21-0.99-1.21s-1,0.37-1,1.21v1.48H55.78z"/>
</g>
</svg>
